<svg width="56" height="56" viewBox="0 0 56 56" fill="none" xmlns="http://www.w3.org/2000/svg">
<rect width="56" height="56" rx="16" fill="#D9E3F7"/>
<path d="M31.9741 21.354C31.9741 21.354 32.6407 22.0207 33.3074 23.354C33.3074 23.354 35.425 20.0207 37.3074 19.354" stroke="#3F71D4" stroke-width="2" stroke-linecap="round" stroke-linejoin="round"/>
<path d="M25.3265 14.6951C21.9953 14.554 19.4216 14.9378 19.4216 14.9378C17.7964 15.054 14.682 15.9651 14.6821 21.286C14.6821 26.5617 14.6476 33.0657 14.6821 35.6585C14.6821 37.2426 15.6629 40.9377 19.0578 41.1357C23.1842 41.3765 30.6171 41.4277 34.0273 41.1357C34.9403 41.0842 37.9796 40.3676 38.3643 37.0608C38.7628 33.635 38.6835 31.2542 38.6835 30.6876" stroke="#3F71D4" stroke-width="2" stroke-linecap="round" stroke-linejoin="round"/>
<path d="M41.3334 21.354C41.3334 25.0359 38.3458 28.0208 34.6603 28.0208C30.9748 28.0208 27.9872 25.0359 27.9872 21.354C27.9872 17.6722 30.9748 14.6874 34.6603 14.6874C38.3458 14.6874 41.3334 17.6722 41.3334 21.354Z" stroke="#3F71D4" stroke-width="2" stroke-linecap="round"/>
<path d="M21.3074 29.3541H26.6407" stroke="#3F71D4" stroke-width="2" stroke-linecap="round"/>
<path d="M21.3074 34.6875H31.974" stroke="#3F71D4" stroke-width="2" stroke-linecap="round"/>
</svg>
