<svg width="300" height="95" viewBox="0 0 300 95" fill="none" xmlns="http://www.w3.org/2000/svg">
<g clip-path="url(#clip0_60_15)">
<mask id="mask0_60_15" style="mask-type:luminance" maskUnits="userSpaceOnUse" x="81" y="0" width="6" height="95">
<path d="M81.469 0.947998H86.469V94.031H81.469V0.947998Z" fill="white"/>
</mask>
<g mask="url(#mask0_60_15)">
<path d="M81.469 0.947998H86.469V94.036H81.469V0.947998Z" fill="black"/>
</g>
<path d="M102.811 58.374H111.936V84.416H102.811V58.374ZM107.374 55.479C105.707 55.479 104.358 55.015 103.332 54.083C102.301 53.156 101.79 51.999 101.79 50.624C101.79 49.249 102.301 48.098 103.332 47.166C104.358 46.239 105.707 45.77 107.374 45.77C109.04 45.77 110.384 46.218 111.415 47.104C112.442 47.979 112.957 49.104 112.957 50.479C112.957 51.927 112.442 53.119 111.415 54.062C110.384 55.01 109.04 55.479 107.374 55.479Z" fill="black"/>
<path d="M130.101 57.937C133.335 57.937 135.94 58.906 137.914 60.833C139.882 62.749 140.872 65.645 140.872 69.52V84.416H131.747V70.999C131.747 67.447 130.315 65.666 127.455 65.666C125.882 65.666 124.627 66.182 123.684 67.208C122.736 68.239 122.268 69.781 122.268 71.833V84.416H113.143V58.374H121.83V61.208C122.856 60.156 124.07 59.348 125.476 58.791C126.893 58.223 128.434 57.937 130.101 57.937Z" fill="black"/>
<path d="M155.191 84.854C152.3 84.854 149.717 84.281 147.441 83.124C145.175 81.973 143.404 80.369 142.128 78.312C140.863 76.26 140.233 73.932 140.233 71.333C140.233 68.749 140.863 66.447 142.128 64.416C143.404 62.374 145.175 60.786 147.441 59.645C149.717 58.51 152.3 57.937 155.191 57.937C158.134 57.937 160.675 58.572 162.816 59.833C164.967 61.098 166.493 62.854 167.399 65.104L160.337 68.708C159.139 66.364 157.404 65.187 155.128 65.187C153.503 65.187 152.149 65.739 151.066 66.833C149.993 67.916 149.462 69.416 149.462 71.333C149.462 73.291 149.993 74.828 151.066 75.937C152.149 77.036 153.503 77.583 155.128 77.583C157.404 77.583 159.139 76.416 160.337 74.083L167.399 77.687C166.493 79.937 164.967 81.697 162.816 82.958C160.675 84.223 158.134 84.854 155.191 84.854Z" fill="black"/>
<path d="M192.77 71.437C192.77 71.51 192.718 72.265 192.624 73.708H173.687C174.072 75.041 174.817 76.072 175.916 76.791C177.025 77.515 178.416 77.874 180.083 77.874C181.333 77.874 182.406 77.703 183.312 77.354C184.229 76.994 185.15 76.416 186.083 75.624L190.895 80.624C188.364 83.447 184.666 84.854 179.791 84.854C176.749 84.854 174.072 84.281 171.77 83.124C169.463 81.973 167.671 80.369 166.395 78.312C165.13 76.26 164.499 73.932 164.499 71.333C164.499 68.781 165.114 66.489 166.354 64.458C167.588 62.416 169.296 60.822 171.479 59.666C173.656 58.515 176.109 57.937 178.833 57.937C181.427 57.937 183.781 58.473 185.895 59.541C188.005 60.614 189.677 62.166 190.916 64.208C192.15 66.239 192.77 68.645 192.77 71.437ZM178.874 64.416C177.468 64.416 176.291 64.822 175.333 65.624C174.385 66.432 173.791 67.52 173.541 68.895H184.208C183.958 67.52 183.359 66.432 182.416 65.624C181.468 64.822 180.291 64.416 178.874 64.416Z" fill="black"/>
<path d="M209.244 57.937C212.479 57.937 215.083 58.906 217.057 60.833C219.026 62.749 220.015 65.645 220.015 69.52V84.416H210.89V70.999C210.89 67.447 209.458 65.666 206.599 65.666C205.026 65.666 203.771 66.182 202.828 67.208C201.88 68.239 201.411 69.781 201.411 71.833V84.416H192.286V58.374H200.974V61.208C202 60.156 203.213 59.348 204.619 58.791C206.036 58.223 207.578 57.937 209.244 57.937Z" fill="black"/>
<path d="M239.001 83.354C238.22 83.843 237.277 84.208 236.168 84.458C235.069 84.718 233.897 84.854 232.647 84.854C229.241 84.854 226.626 84.02 224.793 82.354C222.97 80.687 222.064 78.203 222.064 74.895V66.145H218.272V59.333H222.064V52.541H231.209V59.333H237.168V66.145H231.209V74.812C231.209 75.744 231.449 76.473 231.939 76.999C232.439 77.531 233.105 77.791 233.939 77.791C234.991 77.791 235.923 77.515 236.73 76.958L239.001 83.354Z" fill="black"/>
<path d="M237.792 58.374H246.917V84.416H237.792V58.374ZM242.355 55.479C240.688 55.479 239.339 55.015 238.313 54.083C237.282 53.156 236.772 51.999 236.772 50.624C236.772 49.249 237.282 48.098 238.313 47.166C239.339 46.239 240.688 45.77 242.355 45.77C244.022 45.77 245.365 46.218 246.397 47.104C247.423 47.979 247.938 49.104 247.938 50.479C247.938 51.927 247.423 53.119 246.397 54.062C245.365 55.01 244.022 55.479 242.355 55.479Z" fill="black"/>
<path d="M275.561 58.374L264.791 84.416H255.374L244.666 58.374H254.02L260.27 74.27L266.853 58.374H275.561Z" fill="black"/>
<path d="M299.833 71.437C299.833 71.51 299.781 72.265 299.687 73.708H280.749C281.135 75.041 281.88 76.072 282.978 76.791C284.088 77.515 285.478 77.874 287.145 77.874C288.395 77.874 289.468 77.703 290.374 77.354C291.291 76.994 292.213 76.416 293.145 75.624L297.958 80.624C295.426 83.447 291.728 84.854 286.853 84.854C283.812 84.854 281.135 84.281 278.833 83.124C276.525 81.973 274.734 80.369 273.458 78.312C272.192 76.26 271.562 73.932 271.562 71.333C271.562 68.781 272.176 66.489 273.416 64.458C274.65 62.416 276.359 60.822 278.541 59.666C280.718 58.515 283.171 57.937 285.895 57.937C288.489 57.937 290.843 58.473 292.958 59.541C295.067 60.614 296.739 62.166 297.978 64.208C299.213 66.239 299.833 68.645 299.833 71.437ZM285.937 64.416C284.531 64.416 283.353 64.822 282.395 65.624C281.447 66.432 280.853 67.52 280.603 68.895H291.27C291.02 67.52 290.421 66.432 289.478 65.624C288.531 64.822 287.353 64.416 285.937 64.416Z" fill="black"/>
<path d="M117.52 15.117C120.686 15.117 123.207 16.0439 125.082 17.8869C126.957 19.7359 127.895 22.419 127.895 25.929V40.5959H124.478V26.283C124.478 23.648 123.816 21.6369 122.499 20.2619C121.191 18.8869 119.322 18.2 116.895 18.2C114.171 18.2 112.009 19.0119 110.415 20.6369C108.832 22.2519 108.04 24.481 108.04 27.325V40.5959H104.624V4.92896H108.04V19.742C108.968 18.273 110.249 17.132 111.874 16.325C113.509 15.523 115.395 15.117 117.52 15.117Z" fill="black"/>
<path d="M132.447 15.325H135.863V40.5959H132.447V15.325ZM134.197 9.78296C133.488 9.78296 132.889 9.54895 132.405 9.07495C131.931 8.58995 131.697 8.01195 131.697 7.34595C131.697 6.69495 131.931 6.13196 132.405 5.65796C132.889 5.17396 133.488 4.92896 134.197 4.92896C134.905 4.92896 135.493 5.16895 135.967 5.63695C136.452 6.09595 136.697 6.64796 136.697 7.28296C136.697 7.99196 136.452 8.58995 135.967 9.07495C135.493 9.54895 134.905 9.78296 134.197 9.78296Z" fill="black"/>
<path d="M36.949 27.4981C37.715 25.3991 40.045 24.3161 42.151 25.0801C44.257 25.8441 45.344 28.1661 44.577 30.2651L42.726 35.333M36.949 27.4981L38.799 22.43C39.566 20.33 38.48 18.009 36.374 17.245C34.267 16.481 31.938 17.563 31.171 19.663L29.784 23.4641M36.949 27.4981L31.858 41.435M42.726 35.333C43.492 33.234 45.822 32.151 47.928 32.915C50.035 33.679 51.121 36.0011 50.354 38.1001L44.647 53.7271C42.635 59.2351 41.63 61.9881 39.987 63.8751C39.034 64.9701 37.154 66.1251 35.696 66.9231C34.434 67.6141 33.419 68.701 32.927 70.049L31.849 73.0001M42.726 35.333L38.561 46.736M29.784 23.4641C30.549 21.3651 29.463 19.0451 27.357 18.2811C25.251 17.5171 22.921 18.5991 22.155 20.6991L14.323 42.1411L11.707 36.5281C10.5595 34.0651 7.52149 33.15 5.19559 34.566C3.41599 35.65 2.59329 37.798 3.19559 39.788L8.09309 54.7611C9.03019 57.6251 8.7268 61.4071 7.6927 64.2381M29.784 23.4641L25.156 36.1341" stroke="black" stroke-width="4.2" stroke-linecap="round" stroke-linejoin="round"/>
<path d="M55.726 47.8C57.256 52.379 54.961 57.394 50.6 59" stroke="black" stroke-width="4.2" stroke-linecap="round"/>
<path d="M62.373 51.04C63.006 56.931 59.776 62.7721 55.159 64.0871" stroke="black" stroke-width="4.2" stroke-linecap="round"/>
</g>
<defs>
<clipPath id="clip0_60_15">
<rect width="300" height="95" fill="white"/>
</clipPath>
</defs>
</svg>
