<svg width="1284" height="582" viewBox="0 0 1284 582" fill="none" xmlns="http://www.w3.org/2000/svg">
<path d="M31.584 128L22.688 110.528H18.08V128H9.184V82.624H26.912C35.744 82.624 41.376 88.704 41.376 96.576C41.376 102.912 37.664 107.712 31.712 109.44L41.44 128H31.584ZM18.08 102.912H25.248C29.728 102.912 32.352 100.352 32.352 96.64C32.352 92.8 29.728 90.304 25.248 90.304H18.08V102.912ZM53.877 108.672H67.957C67.829 105.536 65.781 102.464 60.917 102.464C56.501 102.464 54.069 105.792 53.877 108.672ZM68.789 116.864L75.893 118.976C74.293 124.416 69.301 128.96 61.557 128.96C52.917 128.96 45.301 122.752 45.301 112.128C45.301 102.08 52.725 95.552 60.789 95.552C70.517 95.552 76.341 101.76 76.341 111.872C76.341 113.088 76.213 114.368 76.213 114.496H53.685C53.877 118.656 57.397 121.664 61.621 121.664C65.589 121.664 67.765 119.68 68.789 116.864ZM112.115 96.512L99.891 128H91.379L78.515 96.512H87.859L95.667 117.632L103.155 96.512H112.115ZM130.501 121.216C134.661 121.216 138.501 118.208 138.501 112.256C138.501 106.304 134.661 103.296 130.501 103.296C126.341 103.296 122.501 106.304 122.501 112.256C122.501 118.144 126.341 121.216 130.501 121.216ZM130.501 95.552C139.909 95.552 147.013 102.528 147.013 112.256C147.013 121.92 139.909 128.96 130.501 128.96C121.093 128.96 113.989 121.92 113.989 112.256C113.989 102.528 121.093 95.552 130.501 95.552ZM162.244 128H153.732V81.664H162.244V128ZM191.84 128C191.712 127.36 191.584 125.888 191.584 124.608C189.856 127.552 186.208 128.832 182.88 128.832C175.264 128.832 170.911 123.264 170.911 116.416V96.512H179.424V114.688C179.424 118.208 181.216 121.024 185.184 121.024C188.96 121.024 191.136 118.464 191.136 114.816V96.512H199.648V122.304C199.648 124.736 199.84 126.912 199.968 128H191.84ZM219.228 87.104V96.512H225.564V104.064H219.228V117.248C219.228 120 220.508 120.896 222.94 120.896C223.964 120.896 225.116 120.768 225.564 120.64V127.68C224.796 128 223.26 128.448 220.764 128.448C214.62 128.448 210.78 124.8 210.78 118.72V104.064H205.084V96.512H206.684C210.012 96.512 211.548 94.336 211.548 91.52V87.104H219.228ZM241.306 128H232.794V96.512H241.306V128ZM231.77 86.208C231.77 83.264 234.138 80.896 237.018 80.896C239.962 80.896 242.266 83.264 242.266 86.208C242.266 89.024 239.962 91.392 237.018 91.392C234.138 91.392 231.77 89.024 231.77 86.208ZM264.563 121.216C268.723 121.216 272.563 118.208 272.563 112.256C272.563 106.304 268.723 103.296 264.563 103.296C260.403 103.296 256.563 106.304 256.563 112.256C256.563 118.144 260.403 121.216 264.563 121.216ZM264.563 95.552C273.971 95.552 281.075 102.528 281.075 112.256C281.075 121.92 273.971 128.96 264.563 128.96C255.155 128.96 248.051 121.92 248.051 112.256C248.051 102.528 255.155 95.552 264.563 95.552ZM296.306 109.888V128H287.794V96.512H296.05V100.416C297.97 97.152 301.746 95.68 305.138 95.68C312.946 95.68 316.53 101.248 316.53 108.16V128H308.018V109.632C308.018 106.112 306.29 103.36 302.194 103.36C298.482 103.36 296.306 106.24 296.306 109.888ZM333.681 128H325.169V96.512H333.681V128ZM324.145 86.208C324.145 83.264 326.513 80.896 329.393 80.896C332.337 80.896 334.641 83.264 334.641 86.208C334.641 89.024 332.337 91.392 329.393 91.392C326.513 91.392 324.145 89.024 324.145 86.208ZM366.666 128H340.618V120.512L355.53 103.872H341.002V96.512H366.41V103.616L351.05 120.576H366.666V128ZM379.627 108.672H393.707C393.579 105.536 391.531 102.464 386.667 102.464C382.251 102.464 379.819 105.792 379.627 108.672ZM394.539 116.864L401.643 118.976C400.043 124.416 395.051 128.96 387.307 128.96C378.667 128.96 371.051 122.752 371.051 112.128C371.051 102.08 378.475 95.552 386.539 95.552C396.267 95.552 402.091 101.76 402.091 111.872C402.091 113.088 401.963 114.368 401.963 114.496H379.435C379.627 118.656 383.147 121.664 387.371 121.664C391.339 121.664 393.515 119.68 394.539 116.864ZM37.6 205H9.184V159.624H37.6V167.944H18.016V178.312H35.744V186.184H18.016V196.68H37.6V205ZM53.931 205H45.419V173.512H53.547V177.352C55.275 174.28 59.307 172.616 62.763 172.616C67.051 172.616 70.507 174.472 72.107 177.864C74.603 174.024 77.931 172.616 82.091 172.616C87.915 172.616 93.483 176.136 93.483 184.584V205H85.227V186.312C85.227 182.92 83.563 180.36 79.659 180.36C76.011 180.36 73.835 183.176 73.835 186.568V205H65.387V186.312C65.387 182.92 63.659 180.36 59.819 180.36C56.107 180.36 53.931 183.112 53.931 186.568V205ZM110.619 217.16H102.107V173.512H110.363V177.352C111.771 174.92 115.291 172.808 120.027 172.808C129.243 172.808 134.555 179.848 134.555 189.192C134.555 198.728 128.603 205.768 119.707 205.768C115.355 205.768 112.155 204.04 110.619 201.928V217.16ZM126.171 189.256C126.171 183.688 122.715 180.424 118.363 180.424C114.01 180.424 110.491 183.688 110.491 189.256C110.491 194.824 114.01 198.152 118.363 198.152C122.715 198.152 126.171 194.888 126.171 189.256ZM149.806 205H141.294V158.664H149.806V205ZM173.063 198.216C177.223 198.216 181.063 195.208 181.063 189.256C181.063 183.304 177.223 180.296 173.063 180.296C168.903 180.296 165.063 183.304 165.063 189.256C165.063 195.144 168.903 198.216 173.063 198.216ZM173.063 172.552C182.471 172.552 189.575 179.528 189.575 189.256C189.575 198.92 182.471 205.96 173.063 205.96C163.655 205.96 156.551 198.92 156.551 189.256C156.551 179.528 163.655 172.552 173.063 172.552ZM205.674 217.416H196.65L204.074 201.032L190.698 173.512H200.234L208.618 191.944L216.362 173.512H225.45L205.674 217.416ZM235.315 185.672H249.395C249.267 182.536 247.219 179.464 242.355 179.464C237.939 179.464 235.507 182.792 235.315 185.672ZM250.227 193.864L257.331 195.976C255.731 201.416 250.739 205.96 242.995 205.96C234.355 205.96 226.739 199.752 226.739 189.128C226.739 179.08 234.163 172.552 242.227 172.552C251.955 172.552 257.779 178.76 257.779 188.872C257.779 190.088 257.651 191.368 257.651 191.496H235.123C235.315 195.656 238.835 198.664 243.059 198.664C247.027 198.664 249.203 196.68 250.227 193.864ZM270.69 185.672H284.77C284.642 182.536 282.594 179.464 277.73 179.464C273.314 179.464 270.882 182.792 270.69 185.672ZM285.602 193.864L292.706 195.976C291.106 201.416 286.114 205.96 278.37 205.96C269.73 205.96 262.114 199.752 262.114 189.128C262.114 179.08 269.538 172.552 277.602 172.552C287.33 172.552 293.154 178.76 293.154 188.872C293.154 190.088 293.026 191.368 293.026 191.496H270.498C270.69 195.656 274.21 198.664 278.434 198.664C282.402 198.664 284.578 196.68 285.602 193.864ZM325.269 205H316.309V159.624H325.269V205ZM343.494 186.888V205H334.982V173.512H343.238V177.416C345.158 174.152 348.934 172.68 352.326 172.68C360.134 172.68 363.718 178.248 363.718 185.16V205H355.206V186.632C355.206 183.112 353.478 180.36 349.382 180.36C345.67 180.36 343.494 183.24 343.494 186.888ZM386.501 180.424C382.149 180.424 378.501 183.56 378.501 189.256C378.501 194.952 382.213 198.152 386.565 198.152C390.917 198.152 393.093 195.272 393.797 192.84L401.285 195.336C399.877 200.584 394.949 205.96 386.565 205.96C377.285 205.96 369.989 198.92 369.989 189.256C369.989 179.528 377.157 172.552 386.309 172.552C394.885 172.552 399.749 177.864 401.093 183.176L393.477 185.736C392.709 183.112 390.725 180.424 386.501 180.424ZM413.44 185.672H427.52C427.392 182.536 425.344 179.464 420.48 179.464C416.064 179.464 413.632 182.792 413.44 185.672ZM428.352 193.864L435.456 195.976C433.856 201.416 428.864 205.96 421.12 205.96C412.48 205.96 404.864 199.752 404.864 189.128C404.864 179.08 412.288 172.552 420.352 172.552C430.08 172.552 435.904 178.76 435.904 188.872C435.904 190.088 435.776 191.368 435.776 191.496H413.248C413.44 195.656 416.96 198.664 421.184 198.664C425.152 198.664 427.328 196.68 428.352 193.864ZM451.119 186.888V205H442.607V173.512H450.863V177.416C452.783 174.152 456.559 172.68 459.951 172.68C467.759 172.68 471.343 178.248 471.343 185.16V205H462.831V186.632C462.831 183.112 461.103 180.36 457.007 180.36C453.295 180.36 451.119 183.24 451.119 186.888ZM490.478 164.104V173.512H496.814V181.064H490.478V194.248C490.478 197 491.758 197.896 494.19 197.896C495.214 197.896 496.366 197.768 496.814 197.64V204.68C496.046 205 494.51 205.448 492.014 205.448C485.87 205.448 482.03 201.8 482.03 195.72V181.064H476.334V173.512H477.934C481.262 173.512 482.798 171.336 482.798 168.52V164.104H490.478ZM512.556 205H504.044V173.512H512.556V205ZM503.02 163.208C503.02 160.264 505.388 157.896 508.268 157.896C511.212 157.896 513.516 160.264 513.516 163.208C513.516 166.024 511.212 168.392 508.268 168.392C505.388 168.392 503.02 166.024 503.02 163.208ZM551.365 173.512L539.141 205H530.629L517.765 173.512H527.109L534.917 194.632L542.405 173.512H551.365ZM561.815 185.672H575.895C575.767 182.536 573.719 179.464 568.855 179.464C564.439 179.464 562.007 182.792 561.815 185.672ZM576.727 193.864L583.831 195.976C582.231 201.416 577.239 205.96 569.495 205.96C560.855 205.96 553.239 199.752 553.239 189.128C553.239 179.08 560.663 172.552 568.727 172.552C578.455 172.552 584.279 178.76 584.279 188.872C584.279 190.088 584.151 191.368 584.151 191.496H561.623C561.815 195.656 565.335 198.664 569.559 198.664C573.527 198.664 575.703 196.68 576.727 193.864ZM588.294 196.232L595.59 194.632C595.782 197.128 597.638 199.432 601.35 199.432C604.166 199.432 605.51 197.96 605.51 196.296C605.51 194.888 604.55 193.736 602.118 193.224L597.958 192.264C591.878 190.92 589.126 187.272 589.126 182.856C589.126 177.224 594.118 172.552 600.902 172.552C609.862 172.552 612.87 178.248 613.254 181.64L606.15 183.24C605.894 181.384 604.55 179.016 600.966 179.016C598.726 179.016 596.934 180.36 596.934 182.152C596.934 183.688 598.086 184.648 599.814 184.968L604.294 185.928C610.502 187.208 613.638 190.984 613.638 195.592C613.638 200.712 609.67 205.96 601.414 205.96C591.942 205.96 588.678 199.816 588.294 196.232Z" fill="#1C1F25"/>
<path d="M4 278C73.6307 258.38 266.914 230.911 483 278" stroke="#1C1F25" stroke-width="8" stroke-linecap="round"/>
<path d="M18.472 321.128H13.096V335H9.76V321.128H4.384V317.984H18.472V321.128ZM23.8257 328.064V335H20.6337V317.624H23.8257V324.176C24.5937 323.264 25.8897 322.88 27.0177 322.88C30.0177 322.88 31.4097 324.968 31.4097 327.56V335H28.2177V328.112C28.2177 326.792 27.5697 325.76 26.0337 325.76C24.6897 325.76 23.8977 326.768 23.8257 328.064ZM36.9773 327.752H42.2573C42.2093 326.576 41.4413 325.424 39.6173 325.424C37.9613 325.424 37.0493 326.672 36.9773 327.752ZM42.5693 330.824L45.2333 331.616C44.6333 333.656 42.7613 335.36 39.8573 335.36C36.6173 335.36 33.7613 333.032 33.7613 329.048C33.7613 325.28 36.5453 322.832 39.5693 322.832C43.2173 322.832 45.4013 325.16 45.4013 328.952C45.4013 329.408 45.3533 329.888 45.3533 329.936H36.9053C36.9773 331.496 38.2973 332.624 39.8813 332.624C41.3693 332.624 42.1853 331.88 42.5693 330.824ZM62.3886 325.928H57.6606V335H54.4446V325.928H52.4766V323.192H54.4446V321.848C54.4446 319.184 56.1246 317.456 58.7406 317.456C59.4126 317.456 60.0606 317.576 60.3246 317.696V320.384C60.1566 320.336 59.8446 320.264 59.3166 320.264C58.6206 320.264 57.6606 320.576 57.6606 321.896V323.192H65.5566V335H62.3886V325.928ZM62.0046 319.304C62.0046 318.2 62.8926 317.312 63.9726 317.312C65.0526 317.312 65.9406 318.2 65.9406 319.304C65.9406 320.384 65.0526 321.248 63.9726 321.248C62.8926 321.248 62.0046 320.384 62.0046 319.304ZM76.1853 323.144V326.36C75.8253 326.288 75.5133 326.264 75.2253 326.264C73.5933 326.264 72.1773 327.056 72.1773 329.6V335H68.9853V323.192H72.0813V324.944C72.8013 323.384 74.4333 323.096 75.4413 323.096C75.7053 323.096 75.9453 323.12 76.1853 323.144ZM77.4929 331.712L80.2289 331.112C80.3009 332.048 80.9969 332.912 82.3889 332.912C83.4449 332.912 83.9489 332.36 83.9489 331.736C83.9489 331.208 83.5889 330.776 82.6769 330.584L81.1169 330.224C78.8369 329.72 77.8049 328.352 77.8049 326.696C77.8049 324.584 79.6769 322.832 82.2209 322.832C85.5809 322.832 86.7089 324.968 86.8529 326.24L84.1889 326.84C84.0929 326.144 83.5889 325.256 82.2449 325.256C81.4049 325.256 80.7329 325.76 80.7329 326.432C80.7329 327.008 81.1649 327.368 81.8129 327.488L83.4929 327.848C85.8209 328.328 86.9969 329.744 86.9969 331.472C86.9969 333.392 85.5089 335.36 82.4129 335.36C78.8609 335.36 77.6369 333.056 77.4929 331.712ZM93.4994 319.664V323.192H95.8754V326.024H93.4994V330.968C93.4994 332 93.9794 332.336 94.8914 332.336C95.2754 332.336 95.7074 332.288 95.8754 332.24V334.88C95.5874 335 95.0114 335.168 94.0754 335.168C91.7714 335.168 90.3314 333.8 90.3314 331.52V326.024H88.1954V323.192H88.7954C90.0434 323.192 90.6194 322.376 90.6194 321.32V319.664H93.4994ZM103.726 331.784C103.726 329.672 105.286 328.496 107.254 328.208L110.158 327.776C110.83 327.68 111.046 327.344 111.046 326.936C111.046 326.096 110.398 325.4 109.054 325.4C107.662 325.4 106.894 326.288 106.798 327.32L103.966 326.72C104.158 324.872 105.862 322.832 109.03 322.832C112.774 322.832 114.166 324.944 114.166 327.32V333.128C114.166 333.752 114.238 334.592 114.31 335H111.382C111.31 334.688 111.262 334.04 111.262 333.584C110.662 334.52 109.534 335.336 107.782 335.336C105.262 335.336 103.726 333.632 103.726 331.784ZM108.454 332.96C109.798 332.96 111.046 332.312 111.046 330.224V329.696L108.382 330.104C107.566 330.224 106.918 330.68 106.918 331.592C106.918 332.288 107.422 332.96 108.454 332.96ZM124.948 335C124.9 334.76 124.852 334.208 124.852 333.728C124.204 334.832 122.836 335.312 121.588 335.312C118.732 335.312 117.1 333.224 117.1 330.656V323.192H120.292V330.008C120.292 331.328 120.964 332.384 122.452 332.384C123.868 332.384 124.684 331.424 124.684 330.056V323.192H127.876V332.864C127.876 333.776 127.948 334.592 127.996 335H124.948ZM135.218 319.664V323.192H137.594V326.024H135.218V330.968C135.218 332 135.698 332.336 136.61 332.336C136.994 332.336 137.426 332.288 137.594 332.24V334.88C137.306 335 136.73 335.168 135.794 335.168C133.49 335.168 132.05 333.8 132.05 331.52V326.024H129.914V323.192H130.514C131.762 323.192 132.338 322.376 132.338 321.32V319.664H135.218ZM145.492 332.456C147.052 332.456 148.492 331.328 148.492 329.096C148.492 326.864 147.052 325.736 145.492 325.736C143.932 325.736 142.492 326.864 142.492 329.096C142.492 331.304 143.932 332.456 145.492 332.456ZM145.492 322.832C149.02 322.832 151.684 325.448 151.684 329.096C151.684 332.72 149.02 335.36 145.492 335.36C141.964 335.36 139.3 332.72 139.3 329.096C139.3 325.448 141.964 322.832 145.492 322.832ZM157.396 335H154.204V323.192H157.252V324.632C157.9 323.48 159.412 322.856 160.708 322.856C162.316 322.856 163.612 323.552 164.212 324.824C165.148 323.384 166.396 322.856 167.956 322.856C170.14 322.856 172.228 324.176 172.228 327.344V335H169.132V327.992C169.132 326.72 168.508 325.76 167.044 325.76C165.676 325.76 164.86 326.816 164.86 328.088V335H161.692V327.992C161.692 326.72 161.044 325.76 159.604 325.76C158.212 325.76 157.396 326.792 157.396 328.088V335ZM174.742 331.784C174.742 329.672 176.302 328.496 178.27 328.208L181.174 327.776C181.846 327.68 182.062 327.344 182.062 326.936C182.062 326.096 181.414 325.4 180.07 325.4C178.678 325.4 177.91 326.288 177.814 327.32L174.982 326.72C175.174 324.872 176.878 322.832 180.046 322.832C183.79 322.832 185.182 324.944 185.182 327.32V333.128C185.182 333.752 185.254 334.592 185.326 335H182.398C182.326 334.688 182.278 334.04 182.278 333.584C181.678 334.52 180.55 335.336 178.798 335.336C176.278 335.336 174.742 333.632 174.742 331.784ZM179.47 332.96C180.814 332.96 182.062 332.312 182.062 330.224V329.696L179.398 330.104C178.582 330.224 177.934 330.68 177.934 331.592C177.934 332.288 178.438 332.96 179.47 332.96ZM192.265 319.664V323.192H194.641V326.024H192.265V330.968C192.265 332 192.745 332.336 193.657 332.336C194.041 332.336 194.473 332.288 194.641 332.24V334.88C194.353 335 193.777 335.168 192.841 335.168C190.537 335.168 189.097 333.8 189.097 331.52V326.024H186.961V323.192H187.561C188.809 323.192 189.385 322.376 189.385 321.32V319.664H192.265ZM199.563 327.752H204.843C204.795 326.576 204.027 325.424 202.203 325.424C200.547 325.424 199.635 326.672 199.563 327.752ZM205.155 330.824L207.819 331.616C207.219 333.656 205.347 335.36 202.443 335.36C199.203 335.36 196.347 333.032 196.347 329.048C196.347 325.28 199.131 322.832 202.155 322.832C205.803 322.832 207.987 325.16 207.987 328.952C207.987 329.408 207.939 329.888 207.939 329.936H199.491C199.563 331.496 200.883 332.624 202.467 332.624C203.955 332.624 204.771 331.88 205.155 330.824ZM221.757 317.624V332.864C221.757 333.656 221.805 334.52 221.853 335H218.805C218.757 334.76 218.685 334.184 218.685 333.632C218.157 334.568 216.957 335.288 215.373 335.288C212.013 335.288 209.613 332.648 209.613 329.072C209.613 325.616 211.941 322.904 215.277 322.904C217.317 322.904 218.277 323.744 218.613 324.368V317.624H221.757ZM212.829 329.072C212.829 331.184 214.077 332.432 215.757 332.432C217.389 332.432 218.661 331.184 218.661 329.048C218.661 326.936 217.389 325.76 215.757 325.76C214.125 325.76 212.829 326.96 212.829 329.072ZM230.141 331.712L232.877 331.112C232.949 332.048 233.645 332.912 235.037 332.912C236.093 332.912 236.597 332.36 236.597 331.736C236.597 331.208 236.237 330.776 235.325 330.584L233.765 330.224C231.485 329.72 230.453 328.352 230.453 326.696C230.453 324.584 232.325 322.832 234.869 322.832C238.229 322.832 239.357 324.968 239.501 326.24L236.837 326.84C236.741 326.144 236.237 325.256 234.893 325.256C234.053 325.256 233.381 325.76 233.381 326.432C233.381 327.008 233.813 327.368 234.461 327.488L236.141 327.848C238.469 328.328 239.645 329.744 239.645 331.472C239.645 333.392 238.157 335.36 235.061 335.36C231.509 335.36 230.285 333.056 230.141 331.712ZM247.469 332.456C249.029 332.456 250.469 331.328 250.469 329.096C250.469 326.864 249.029 325.736 247.469 325.736C245.909 325.736 244.469 326.864 244.469 329.096C244.469 331.304 245.909 332.456 247.469 332.456ZM247.469 322.832C250.997 322.832 253.661 325.448 253.661 329.096C253.661 332.72 250.997 335.36 247.469 335.36C243.941 335.36 241.277 332.72 241.277 329.096C241.277 325.448 243.941 322.832 247.469 322.832ZM259.373 335H256.181V317.624H259.373V335ZM270.471 335C270.423 334.76 270.375 334.208 270.375 333.728C269.727 334.832 268.359 335.312 267.111 335.312C264.255 335.312 262.623 333.224 262.623 330.656V323.192H265.815V330.008C265.815 331.328 266.487 332.384 267.975 332.384C269.391 332.384 270.207 331.424 270.207 330.056V323.192H273.399V332.864C273.399 333.776 273.471 334.592 273.519 335H270.471ZM280.742 319.664V323.192H283.118V326.024H280.742V330.968C280.742 332 281.222 332.336 282.134 332.336C282.518 332.336 282.95 332.288 283.118 332.24V334.88C282.83 335 282.254 335.168 281.318 335.168C279.014 335.168 277.574 333.8 277.574 331.52V326.024H275.438V323.192H276.038C277.286 323.192 277.862 322.376 277.862 321.32V319.664H280.742ZM289.021 335H285.829V323.192H289.021V335ZM285.445 319.328C285.445 318.224 286.333 317.336 287.413 317.336C288.517 317.336 289.381 318.224 289.381 319.328C289.381 320.384 288.517 321.272 287.413 321.272C286.333 321.272 285.445 320.384 285.445 319.328ZM297.742 332.456C299.302 332.456 300.742 331.328 300.742 329.096C300.742 326.864 299.302 325.736 297.742 325.736C296.182 325.736 294.742 326.864 294.742 329.096C294.742 331.304 296.182 332.456 297.742 332.456ZM297.742 322.832C301.27 322.832 303.934 325.448 303.934 329.096C303.934 332.72 301.27 335.36 297.742 335.36C294.214 335.36 291.55 332.72 291.55 329.096C291.55 325.448 294.214 322.832 297.742 322.832ZM309.646 328.208V335H306.454V323.192H309.55V324.656C310.27 323.432 311.686 322.88 312.958 322.88C315.886 322.88 317.23 324.968 317.23 327.56V335H314.038V328.112C314.038 326.792 313.39 325.76 311.854 325.76C310.462 325.76 309.646 326.84 309.646 328.208ZM331.871 320.264C331.151 320.264 330.215 320.576 330.215 321.896V323.192H332.879V325.928H330.215V335H326.999V325.928H325.031V323.192H326.999V321.848C326.999 319.184 328.679 317.456 331.295 317.456C331.967 317.456 332.615 317.576 332.879 317.696V320.384C332.711 320.336 332.399 320.264 331.871 320.264ZM340 332.456C341.56 332.456 343 331.328 343 329.096C343 326.864 341.56 325.736 340 325.736C338.44 325.736 337 326.864 337 329.096C337 331.304 338.44 332.456 340 332.456ZM340 322.832C343.528 322.832 346.192 325.448 346.192 329.096C346.192 332.72 343.528 335.36 340 335.36C336.472 335.36 333.808 332.72 333.808 329.096C333.808 325.448 336.472 322.832 340 322.832ZM355.912 323.144V326.36C355.552 326.288 355.24 326.264 354.952 326.264C353.32 326.264 351.904 327.056 351.904 329.6V335H348.712V323.192H351.808V324.944C352.528 323.384 354.16 323.096 355.168 323.096C355.432 323.096 355.672 323.12 355.912 323.144ZM367.569 331.928H370.209C372.993 331.928 375.321 330.2 375.321 326.504C375.321 322.808 373.017 321.056 370.233 321.056H367.569V331.928ZM370.329 335H364.257V317.984H370.353C375.201 317.984 378.753 321.128 378.753 326.504C378.753 331.88 375.177 335 370.329 335ZM380.664 331.784C380.664 329.672 382.224 328.496 384.192 328.208L387.096 327.776C387.768 327.68 387.984 327.344 387.984 326.936C387.984 326.096 387.336 325.4 385.992 325.4C384.6 325.4 383.832 326.288 383.736 327.32L380.904 326.72C381.096 324.872 382.8 322.832 385.968 322.832C389.712 322.832 391.104 324.944 391.104 327.32V333.128C391.104 333.752 391.176 334.592 391.248 335H388.32C388.248 334.688 388.2 334.04 388.2 333.584C387.6 334.52 386.472 335.336 384.72 335.336C382.2 335.336 380.664 333.632 380.664 331.784ZM385.392 332.96C386.736 332.96 387.984 332.312 387.984 330.224V329.696L385.32 330.104C384.504 330.224 383.856 330.68 383.856 331.592C383.856 332.288 384.36 332.96 385.392 332.96ZM397.513 328.208V335H394.321V323.192H397.417V324.656C398.137 323.432 399.553 322.88 400.825 322.88C403.753 322.88 405.097 324.968 405.097 327.56V335H401.905V328.112C401.905 326.792 401.257 325.76 399.721 325.76C398.329 325.76 397.513 326.84 397.513 328.208ZM411.529 335H408.337V323.192H411.529V335ZM407.953 319.328C407.953 318.224 408.841 317.336 409.921 317.336C411.025 317.336 411.889 318.224 411.889 319.328C411.889 320.384 411.025 321.272 409.921 321.272C408.841 321.272 407.953 320.384 407.953 319.328ZM413.938 331.712L416.674 331.112C416.746 332.048 417.442 332.912 418.834 332.912C419.89 332.912 420.394 332.36 420.394 331.736C420.394 331.208 420.034 330.776 419.122 330.584L417.562 330.224C415.282 329.72 414.25 328.352 414.25 326.696C414.25 324.584 416.122 322.832 418.666 322.832C422.026 322.832 423.154 324.968 423.298 326.24L420.634 326.84C420.538 326.144 420.034 325.256 418.69 325.256C417.85 325.256 417.178 325.76 417.178 326.432C417.178 327.008 417.61 327.368 418.258 327.488L419.938 327.848C422.266 328.328 423.442 329.744 423.442 331.472C423.442 333.392 421.954 335.36 418.858 335.36C415.306 335.36 414.082 333.056 413.938 331.712ZM429.201 328.064V335H426.009V317.624H429.201V324.176C429.969 323.264 431.265 322.88 432.393 322.88C435.393 322.88 436.785 324.968 436.785 327.56V335H433.593V328.112C433.593 326.792 432.945 325.76 431.409 325.76C430.065 325.76 429.273 326.768 429.201 328.064ZM444.946 331.712L447.682 331.112C447.754 332.048 448.45 332.912 449.842 332.912C450.898 332.912 451.402 332.36 451.402 331.736C451.402 331.208 451.042 330.776 450.13 330.584L448.57 330.224C446.29 329.72 445.258 328.352 445.258 326.696C445.258 324.584 447.13 322.832 449.674 322.832C453.034 322.832 454.162 324.968 454.306 326.24L451.642 326.84C451.546 326.144 451.042 325.256 449.698 325.256C448.858 325.256 448.186 325.76 448.186 326.432C448.186 327.008 448.618 327.368 449.266 327.488L450.946 327.848C453.274 328.328 454.45 329.744 454.45 331.472C454.45 333.392 452.962 335.36 449.866 335.36C446.314 335.36 445.09 333.056 444.946 331.712ZM460.953 319.664V323.192H463.329V326.024H460.953V330.968C460.953 332 461.433 332.336 462.345 332.336C462.729 332.336 463.161 332.288 463.329 332.24V334.88C463.041 335 462.465 335.168 461.529 335.168C459.225 335.168 457.785 333.8 457.785 331.52V326.024H455.649V323.192H456.249C457.497 323.192 458.073 322.376 458.073 321.32V319.664H460.953ZM465.39 331.784C465.39 329.672 466.95 328.496 468.918 328.208L471.822 327.776C472.494 327.68 472.71 327.344 472.71 326.936C472.71 326.096 472.062 325.4 470.718 325.4C469.326 325.4 468.558 326.288 468.462 327.32L465.63 326.72C465.822 324.872 467.526 322.832 470.694 322.832C474.438 322.832 475.83 324.944 475.83 327.32V333.128C475.83 333.752 475.902 334.592 475.974 335H473.046C472.974 334.688 472.926 334.04 472.926 333.584C472.326 334.52 471.198 335.336 469.446 335.336C466.926 335.336 465.39 333.632 465.39 331.784ZM470.118 332.96C471.462 332.96 472.71 332.312 472.71 330.224V329.696L470.046 330.104C469.23 330.224 468.582 330.68 468.582 331.592C468.582 332.288 469.086 332.96 470.118 332.96ZM486.248 323.144V326.36C485.888 326.288 485.576 326.264 485.288 326.264C483.656 326.264 482.24 327.056 482.24 329.6V335H479.048V323.192H482.144V324.944C482.864 323.384 484.496 323.096 485.504 323.096C485.768 323.096 486.008 323.12 486.248 323.144ZM492.898 319.664V323.192H495.274V326.024H492.898V330.968C492.898 332 493.378 332.336 494.29 332.336C494.674 332.336 495.106 332.288 495.274 332.24V334.88C494.986 335 494.41 335.168 493.474 335.168C491.17 335.168 489.73 333.8 489.73 331.52V326.024H487.594V323.192H488.194C489.442 323.192 490.018 322.376 490.018 321.32V319.664H492.898ZM505.784 335C505.736 334.76 505.688 334.208 505.688 333.728C505.04 334.832 503.672 335.312 502.424 335.312C499.568 335.312 497.936 333.224 497.936 330.656V323.192H501.128V330.008C501.128 331.328 501.8 332.384 503.288 332.384C504.704 332.384 505.52 331.424 505.52 330.056V323.192H508.712V332.864C508.712 333.776 508.784 334.592 508.832 335H505.784ZM515.31 339.56H512.118V323.192H515.214V324.632C515.742 323.72 517.062 322.928 518.838 322.928C522.294 322.928 524.286 325.568 524.286 329.072C524.286 332.648 522.054 335.288 518.718 335.288C517.086 335.288 515.886 334.64 515.31 333.848V339.56ZM521.142 329.096C521.142 327.008 519.846 325.784 518.214 325.784C516.582 325.784 515.262 327.008 515.262 329.096C515.262 331.184 516.582 332.432 518.214 332.432C519.846 332.432 521.142 331.208 521.142 329.096ZM525.805 331.712L528.541 331.112C528.613 332.048 529.309 332.912 530.701 332.912C531.757 332.912 532.261 332.36 532.261 331.736C532.261 331.208 531.901 330.776 530.989 330.584L529.429 330.224C527.149 329.72 526.117 328.352 526.117 326.696C526.117 324.584 527.989 322.832 530.533 322.832C533.893 322.832 535.021 324.968 535.165 326.24L532.501 326.84C532.405 326.144 531.901 325.256 530.557 325.256C529.717 325.256 529.045 325.76 529.045 326.432C529.045 327.008 529.477 327.368 530.125 327.488L531.805 327.848C534.133 328.328 535.309 329.744 535.309 331.472C535.309 333.392 533.821 335.36 530.725 335.36C527.173 335.36 525.949 333.056 525.805 331.712ZM547.742 319.664V323.192H550.118V326.024H547.742V330.968C547.742 332 548.222 332.336 549.134 332.336C549.518 332.336 549.95 332.288 550.118 332.24V334.88C549.83 335 549.254 335.168 548.318 335.168C546.014 335.168 544.574 333.8 544.574 331.52V326.024H542.438V323.192H543.038C544.286 323.192 544.862 322.376 544.862 321.32V319.664H547.742ZM558.016 332.456C559.576 332.456 561.016 331.328 561.016 329.096C561.016 326.864 559.576 325.736 558.016 325.736C556.456 325.736 555.016 326.864 555.016 329.096C555.016 331.304 556.456 332.456 558.016 332.456ZM558.016 322.832C561.544 322.832 564.208 325.448 564.208 329.096C564.208 332.72 561.544 335.36 558.016 335.36C554.488 335.36 551.824 332.72 551.824 329.096C551.824 325.448 554.488 322.832 558.016 322.832ZM577.961 325.784C576.329 325.784 574.961 326.96 574.961 329.096C574.961 331.232 576.353 332.432 577.985 332.432C579.617 332.432 580.433 331.352 580.697 330.44L583.505 331.376C582.977 333.344 581.129 335.36 577.985 335.36C574.505 335.36 571.769 332.72 571.769 329.096C571.769 325.448 574.457 322.832 577.889 322.832C581.105 322.832 582.929 324.824 583.433 326.816L580.577 327.776C580.289 326.792 579.545 325.784 577.961 325.784ZM593.052 323.144V326.36C592.692 326.288 592.38 326.264 592.092 326.264C590.46 326.264 589.044 327.056 589.044 329.6V335H585.852V323.192H588.948V324.944C589.668 323.384 591.3 323.096 592.308 323.096C592.572 323.096 592.812 323.12 593.052 323.144ZM597.509 327.752H602.789C602.741 326.576 601.973 325.424 600.149 325.424C598.493 325.424 597.581 326.672 597.509 327.752ZM603.101 330.824L605.765 331.616C605.165 333.656 603.293 335.36 600.389 335.36C597.149 335.36 594.293 333.032 594.293 329.048C594.293 325.28 597.077 322.832 600.101 322.832C603.749 322.832 605.933 325.16 605.933 328.952C605.933 329.408 605.885 329.888 605.885 329.936H597.437C597.509 331.496 598.829 332.624 600.413 332.624C601.901 332.624 602.717 331.88 603.101 330.824ZM607.726 331.784C607.726 329.672 609.286 328.496 611.254 328.208L614.158 327.776C614.83 327.68 615.046 327.344 615.046 326.936C615.046 326.096 614.398 325.4 613.054 325.4C611.662 325.4 610.894 326.288 610.798 327.32L607.966 326.72C608.158 324.872 609.862 322.832 613.03 322.832C616.774 322.832 618.166 324.944 618.166 327.32V333.128C618.166 333.752 618.238 334.592 618.31 335H615.382C615.31 334.688 615.262 334.04 615.262 333.584C614.662 334.52 613.534 335.336 611.782 335.336C609.262 335.336 607.726 333.632 607.726 331.784ZM612.454 332.96C613.798 332.96 615.046 332.312 615.046 330.224V329.696L612.382 330.104C611.566 330.224 610.918 330.68 610.918 331.592C610.918 332.288 611.422 332.96 612.454 332.96ZM625.249 319.664V323.192H627.625V326.024H625.249V330.968C625.249 332 625.729 332.336 626.641 332.336C627.025 332.336 627.457 332.288 627.625 332.24V334.88C627.337 335 626.761 335.168 625.825 335.168C623.521 335.168 622.081 333.8 622.081 331.52V326.024H619.945V323.192H620.545C621.793 323.192 622.369 322.376 622.369 321.32V319.664H625.249ZM632.548 327.752H637.828C637.78 326.576 637.012 325.424 635.188 325.424C633.532 325.424 632.62 326.672 632.548 327.752ZM638.14 330.824L640.804 331.616C640.204 333.656 638.332 335.36 635.428 335.36C632.188 335.36 629.332 333.032 629.332 329.048C629.332 325.28 632.116 322.832 635.14 322.832C638.788 322.832 640.972 325.16 640.972 328.952C640.972 329.408 640.924 329.888 640.924 329.936H632.476C632.548 331.496 633.868 332.624 635.452 332.624C636.94 332.624 637.756 331.88 638.14 330.824ZM4.984 363.784C4.984 361.672 6.544 360.496 8.512 360.208L11.416 359.776C12.088 359.68 12.304 359.344 12.304 358.936C12.304 358.096 11.656 357.4 10.312 357.4C8.92 357.4 8.152 358.288 8.056 359.32L5.224 358.72C5.416 356.872 7.12 354.832 10.288 354.832C14.032 354.832 15.424 356.944 15.424 359.32V365.128C15.424 365.752 15.496 366.592 15.568 367H12.64C12.568 366.688 12.52 366.04 12.52 365.584C11.92 366.52 10.792 367.336 9.04 367.336C6.52 367.336 4.984 365.632 4.984 363.784ZM9.712 364.96C11.056 364.96 12.304 364.312 12.304 362.224V361.696L9.64 362.104C8.824 362.224 8.176 362.68 8.176 363.592C8.176 364.288 8.68 364.96 9.712 364.96ZM21.8335 360.208V367H18.6415V355.192H21.7375V356.656C22.4575 355.432 23.8735 354.88 25.1455 354.88C28.0735 354.88 29.4175 356.968 29.4175 359.56V367H26.2255V360.112C26.2255 358.792 25.5775 357.76 24.0415 357.76C22.6495 357.76 21.8335 358.84 21.8335 360.208ZM43.9131 349.624V364.864C43.9131 365.656 43.9611 366.52 44.0091 367H40.9611C40.9131 366.76 40.8411 366.184 40.8411 365.632C40.3131 366.568 39.1131 367.288 37.5291 367.288C34.1691 367.288 31.7691 364.648 31.7691 361.072C31.7691 357.616 34.0971 354.904 37.4331 354.904C39.4731 354.904 40.4331 355.744 40.7691 356.368V349.624H43.9131ZM34.9851 361.072C34.9851 363.184 36.2331 364.432 37.9131 364.432C39.5451 364.432 40.8171 363.184 40.8171 361.048C40.8171 358.936 39.5451 357.76 37.9131 357.76C36.2811 357.76 34.9851 358.96 34.9851 361.072ZM56.4976 367H53.3056V355.192H56.3536V356.632C57.0016 355.48 58.5136 354.856 59.8096 354.856C61.4176 354.856 62.7136 355.552 63.3136 356.824C64.2496 355.384 65.4976 354.856 67.0576 354.856C69.2416 354.856 71.3296 356.176 71.3296 359.344V367H68.2336V359.992C68.2336 358.72 67.6096 357.76 66.1456 357.76C64.7776 357.76 63.9616 358.816 63.9616 360.088V367H60.7936V359.992C60.7936 358.72 60.1456 357.76 58.7056 357.76C57.3136 357.76 56.4976 358.792 56.4976 360.088V367ZM73.8434 363.784C73.8434 361.672 75.4034 360.496 77.3714 360.208L80.2754 359.776C80.9474 359.68 81.1634 359.344 81.1634 358.936C81.1634 358.096 80.5154 357.4 79.1714 357.4C77.7794 357.4 77.0114 358.288 76.9154 359.32L74.0834 358.72C74.2754 356.872 75.9794 354.832 79.1474 354.832C82.8914 354.832 84.2834 356.944 84.2834 359.32V365.128C84.2834 365.752 84.3554 366.592 84.4274 367H81.4994C81.4274 366.688 81.3794 366.04 81.3794 365.584C80.7794 366.52 79.6514 367.336 77.8994 367.336C75.3794 367.336 73.8434 365.632 73.8434 363.784ZM78.5714 364.96C79.9154 364.96 81.1634 364.312 81.1634 362.224V361.696L78.4994 362.104C77.6834 362.224 77.0354 362.68 77.0354 363.592C77.0354 364.288 77.5394 364.96 78.5714 364.96ZM90.6929 360.208V367H87.5009V355.192H90.5969V356.656C91.3169 355.432 92.7329 354.88 94.0049 354.88C96.9329 354.88 98.2769 356.968 98.2769 359.56V367H95.0849V360.112C95.0849 358.792 94.4369 357.76 92.9009 357.76C91.5089 357.76 90.6929 358.84 90.6929 360.208ZM100.797 363.784C100.797 361.672 102.357 360.496 104.325 360.208L107.229 359.776C107.901 359.68 108.117 359.344 108.117 358.936C108.117 358.096 107.469 357.4 106.125 357.4C104.733 357.4 103.965 358.288 103.869 359.32L101.037 358.72C101.229 356.872 102.933 354.832 106.101 354.832C109.845 354.832 111.237 356.944 111.237 359.32V365.128C111.237 365.752 111.309 366.592 111.381 367H108.453C108.381 366.688 108.333 366.04 108.333 365.584C107.733 366.52 106.605 367.336 104.853 367.336C102.333 367.336 100.797 365.632 100.797 363.784ZM105.525 364.96C106.868 364.96 108.117 364.312 108.117 362.224V361.696L105.453 362.104C104.637 362.224 103.989 362.68 103.989 363.592C103.989 364.288 104.493 364.96 105.525 364.96ZM113.567 367.648L116.447 366.88C116.663 368.176 117.695 369.112 119.207 369.112C121.223 369.112 122.351 368.104 122.351 365.824V364.96C121.871 365.728 120.767 366.472 119.063 366.472C115.919 366.472 113.567 364.048 113.567 360.736C113.567 357.616 115.823 354.976 119.063 354.976C120.935 354.976 122.015 355.792 122.423 356.584V355.192H125.495V365.728C125.495 368.968 123.743 371.92 119.303 371.92C116.063 371.92 113.903 369.904 113.567 367.648ZM119.615 363.736C121.247 363.736 122.399 362.56 122.399 360.736C122.399 358.912 121.151 357.76 119.615 357.76C118.031 357.76 116.783 358.912 116.783 360.736C116.783 362.584 117.959 363.736 119.615 363.736ZM131.055 359.752H136.335C136.287 358.576 135.519 357.424 133.695 357.424C132.039 357.424 131.127 358.672 131.055 359.752ZM136.647 362.824L139.311 363.616C138.711 365.656 136.839 367.36 133.935 367.36C130.695 367.36 127.839 365.032 127.839 361.048C127.839 357.28 130.623 354.832 133.647 354.832C137.295 354.832 139.479 357.16 139.479 360.952C139.479 361.408 139.431 361.888 139.431 361.936H130.983C131.055 363.496 132.375 364.624 133.959 364.624C135.447 364.624 136.263 363.88 136.647 362.824ZM150.251 359.752H155.531C155.483 358.576 154.715 357.424 152.891 357.424C151.235 357.424 150.323 358.672 150.251 359.752ZM155.843 362.824L158.507 363.616C157.907 365.656 156.035 367.36 153.131 367.36C149.891 367.36 147.035 365.032 147.035 361.048C147.035 357.28 149.819 354.832 152.843 354.832C156.491 354.832 158.675 357.16 158.675 360.952C158.675 361.408 158.627 361.888 158.627 361.936H150.179C150.251 363.496 151.571 364.624 153.155 364.624C154.643 364.624 155.459 363.88 155.843 362.824ZM159.585 367L163.785 361.072L159.585 355.192H163.377C163.785 355.84 165.321 358.048 165.729 358.696L168.057 355.192H171.681L167.553 360.976L171.825 367H168.081L165.609 363.376C165.177 364.024 163.593 366.352 163.185 367H159.585ZM176.966 367H173.774V355.192H176.966V367ZM173.39 351.328C173.39 350.224 174.278 349.336 175.358 349.336C176.462 349.336 177.326 350.224 177.326 351.328C177.326 352.384 176.462 353.272 175.358 353.272C174.278 353.272 173.39 352.384 173.39 351.328ZM184.32 351.664V355.192H186.696V358.024H184.32V362.968C184.32 364 184.8 364.336 185.712 364.336C186.096 364.336 186.528 364.288 186.696 364.24V366.88C186.408 367 185.832 367.168 184.896 367.168C182.592 367.168 181.152 365.8 181.152 363.52V358.024H179.016V355.192H179.616C180.864 355.192 181.44 354.376 181.44 353.32V351.664H184.32ZM201.963 355.192H205.323L207.867 362.8L210.051 355.192H213.219L209.523 367H206.331L203.571 358.936L200.859 367H197.619L193.851 355.192H197.211L199.395 362.776L201.963 355.192ZM214.445 363.784C214.445 361.672 216.005 360.496 217.973 360.208L220.877 359.776C221.549 359.68 221.765 359.344 221.765 358.936C221.765 358.096 221.117 357.4 219.773 357.4C218.381 357.4 217.613 358.288 217.517 359.32L214.685 358.72C214.877 356.872 216.581 354.832 219.749 354.832C223.493 354.832 224.885 356.944 224.885 359.32V365.128C224.885 365.752 224.957 366.592 225.029 367H222.101C222.029 366.688 221.981 366.04 221.981 365.584C221.381 366.52 220.253 367.336 218.501 367.336C215.981 367.336 214.445 365.632 214.445 363.784ZM219.173 364.96C220.517 364.96 221.765 364.312 221.765 362.224V361.696L219.101 362.104C218.285 362.224 217.637 362.68 217.637 363.592C217.637 364.288 218.141 364.96 219.173 364.96ZM235.302 355.144V358.36C234.942 358.288 234.63 358.264 234.342 358.264C232.71 358.264 231.294 359.056 231.294 361.6V367H228.102V355.192H231.198V356.944C231.918 355.384 233.55 355.096 234.558 355.096C234.822 355.096 235.062 355.12 235.302 355.144ZM244.748 355.144V358.36C244.388 358.288 244.076 358.264 243.788 358.264C242.156 358.264 240.74 359.056 240.74 361.6V367H237.548V355.192H240.644V356.944C241.364 355.384 242.996 355.096 244.004 355.096C244.268 355.096 244.508 355.12 244.748 355.144ZM246.343 363.784C246.343 361.672 247.903 360.496 249.871 360.208L252.775 359.776C253.447 359.68 253.663 359.344 253.663 358.936C253.663 358.096 253.015 357.4 251.671 357.4C250.279 357.4 249.511 358.288 249.415 359.32L246.583 358.72C246.775 356.872 248.479 354.832 251.647 354.832C255.391 354.832 256.783 356.944 256.783 359.32V365.128C256.783 365.752 256.855 366.592 256.927 367H253.999C253.927 366.688 253.879 366.04 253.879 365.584C253.279 366.52 252.151 367.336 250.399 367.336C247.879 367.336 246.343 365.632 246.343 363.784ZM251.071 364.96C252.415 364.96 253.663 364.312 253.663 362.224V361.696L250.999 362.104C250.183 362.224 249.535 362.68 249.535 363.592C249.535 364.288 250.039 364.96 251.071 364.96ZM263.193 360.208V367H260.001V355.192H263.097V356.656C263.817 355.432 265.233 354.88 266.505 354.88C269.433 354.88 270.777 356.968 270.777 359.56V367H267.585V360.112C267.585 358.792 266.937 357.76 265.401 357.76C264.009 357.76 263.193 358.84 263.193 360.208ZM277.953 351.664V355.192H280.329V358.024H277.953V362.968C277.953 364 278.433 364.336 279.345 364.336C279.729 364.336 280.161 364.288 280.329 364.24V366.88C280.041 367 279.465 367.168 278.529 367.168C276.225 367.168 274.785 365.8 274.785 363.52V358.024H272.649V355.192H273.249C274.497 355.192 275.073 354.376 275.073 353.32V351.664H277.953ZM292.091 371.56H288.899V355.192H291.995V356.632C292.523 355.72 293.843 354.928 295.619 354.928C299.075 354.928 301.067 357.568 301.067 361.072C301.067 364.648 298.835 367.288 295.499 367.288C293.867 367.288 292.667 366.64 292.091 365.848V371.56ZM297.923 361.096C297.923 359.008 296.627 357.784 294.995 357.784C293.363 357.784 292.043 359.008 292.043 361.096C292.043 363.184 293.363 364.432 294.995 364.432C296.627 364.432 297.923 363.208 297.923 361.096ZM310.795 355.144V358.36C310.435 358.288 310.123 358.264 309.835 358.264C308.203 358.264 306.787 359.056 306.787 361.6V367H303.595V355.192H306.691V356.944C307.411 355.384 309.043 355.096 310.051 355.096C310.315 355.096 310.555 355.12 310.795 355.144ZM318.227 364.456C319.787 364.456 321.227 363.328 321.227 361.096C321.227 358.864 319.787 357.736 318.227 357.736C316.667 357.736 315.227 358.864 315.227 361.096C315.227 363.304 316.667 364.456 318.227 364.456ZM318.227 354.832C321.755 354.832 324.419 357.448 324.419 361.096C324.419 364.72 321.755 367.36 318.227 367.36C314.699 367.36 312.035 364.72 312.035 361.096C312.035 357.448 314.699 354.832 318.227 354.832ZM326.098 367.648L328.978 366.88C329.194 368.176 330.226 369.112 331.738 369.112C333.754 369.112 334.882 368.104 334.882 365.824V364.96C334.402 365.728 333.298 366.472 331.594 366.472C328.45 366.472 326.098 364.048 326.098 360.736C326.098 357.616 328.354 354.976 331.594 354.976C333.466 354.976 334.546 355.792 334.954 356.584V355.192H338.026V365.728C338.026 368.968 336.274 371.92 331.834 371.92C328.594 371.92 326.434 369.904 326.098 367.648ZM332.146 363.736C333.778 363.736 334.93 362.56 334.93 360.736C334.93 358.912 333.682 357.76 332.146 357.76C330.562 357.76 329.314 358.912 329.314 360.736C329.314 362.584 330.49 363.736 332.146 363.736ZM348.459 355.144V358.36C348.099 358.288 347.787 358.264 347.499 358.264C345.867 358.264 344.451 359.056 344.451 361.6V367H341.259V355.192H344.355V356.944C345.075 355.384 346.707 355.096 347.715 355.096C347.979 355.096 348.219 355.12 348.459 355.144ZM350.054 363.784C350.054 361.672 351.614 360.496 353.582 360.208L356.486 359.776C357.158 359.68 357.374 359.344 357.374 358.936C357.374 358.096 356.726 357.4 355.382 357.4C353.99 357.4 353.222 358.288 353.126 359.32L350.294 358.72C350.486 356.872 352.19 354.832 355.358 354.832C359.102 354.832 360.494 356.944 360.494 359.32V365.128C360.494 365.752 360.566 366.592 360.638 367H357.71C357.638 366.688 357.59 366.04 357.59 365.584C356.99 366.52 355.862 367.336 354.11 367.336C351.59 367.336 350.054 365.632 350.054 363.784ZM354.782 364.96C356.126 364.96 357.374 364.312 357.374 362.224V361.696L354.71 362.104C353.894 362.224 353.246 362.68 353.246 363.592C353.246 364.288 353.75 364.96 354.782 364.96ZM366.904 367H363.712V355.192H366.76V356.632C367.408 355.48 368.92 354.856 370.216 354.856C371.824 354.856 373.12 355.552 373.72 356.824C374.656 355.384 375.904 354.856 377.464 354.856C379.648 354.856 381.736 356.176 381.736 359.344V367H378.64V359.992C378.64 358.72 378.016 357.76 376.552 357.76C375.184 357.76 374.368 358.816 374.368 360.088V367H371.2V359.992C371.2 358.72 370.552 357.76 369.112 357.76C367.72 357.76 366.904 358.792 366.904 360.088V367ZM383.962 363.712L386.698 363.112C386.77 364.048 387.466 364.912 388.858 364.912C389.914 364.912 390.418 364.36 390.418 363.736C390.418 363.208 390.058 362.776 389.146 362.584L387.586 362.224C385.306 361.72 384.274 360.352 384.274 358.696C384.274 356.584 386.146 354.832 388.69 354.832C392.05 354.832 393.178 356.968 393.322 358.24L390.658 358.84C390.562 358.144 390.058 357.256 388.714 357.256C387.874 357.256 387.202 357.76 387.202 358.432C387.202 359.008 387.634 359.368 388.282 359.488L389.962 359.848C392.29 360.328 393.466 361.744 393.466 363.472C393.466 365.392 391.978 367.36 388.882 367.36C385.33 367.36 384.106 365.056 383.962 363.712ZM407.103 361.288H400.143V358.456H407.103V361.288ZM419.922 357.784C418.29 357.784 416.922 358.96 416.922 361.096C416.922 363.232 418.314 364.432 419.946 364.432C421.578 364.432 422.394 363.352 422.658 362.44L425.466 363.376C424.938 365.344 423.09 367.36 419.946 367.36C416.466 367.36 413.73 364.72 413.73 361.096C413.73 357.448 416.418 354.832 419.85 354.832C423.066 354.832 424.89 356.824 425.394 358.816L422.538 359.776C422.25 358.792 421.506 357.784 419.922 357.784ZM433 364.456C434.56 364.456 436 363.328 436 361.096C436 358.864 434.56 357.736 433 357.736C431.44 357.736 430 358.864 430 361.096C430 363.304 431.44 364.456 433 364.456ZM433 354.832C436.528 354.832 439.192 357.448 439.192 361.096C439.192 364.72 436.528 367.36 433 367.36C429.472 367.36 426.808 364.72 426.808 361.096C426.808 357.448 429.472 354.832 433 354.832ZM444.904 367H441.712V355.192H444.76V356.632C445.408 355.48 446.92 354.856 448.216 354.856C449.824 354.856 451.12 355.552 451.72 356.824C452.656 355.384 453.904 354.856 455.464 354.856C457.648 354.856 459.736 356.176 459.736 359.344V367H456.64V359.992C456.64 358.72 456.016 357.76 454.552 357.76C453.184 357.76 452.368 358.816 452.368 360.088V367H449.2V359.992C449.2 358.72 448.552 357.76 447.112 357.76C445.72 357.76 444.904 358.792 444.904 360.088V367ZM466.066 367H462.97V349.624H466.114V356.488C466.642 355.648 467.938 354.88 469.69 354.88C473.146 354.88 475.138 357.544 475.138 361.048C475.138 364.624 472.93 367.288 469.57 367.288C467.938 367.288 466.69 366.568 466.066 365.56V367ZM471.946 361.072C471.946 358.912 470.65 357.736 469.018 357.736C467.41 357.736 466.066 358.912 466.066 361.072C466.066 363.208 467.41 364.432 469.018 364.432C470.65 364.432 471.946 363.232 471.946 361.072ZM480.857 367H477.665V355.192H480.857V367ZM477.281 351.328C477.281 350.224 478.169 349.336 479.249 349.336C480.353 349.336 481.217 350.224 481.217 351.328C481.217 352.384 480.353 353.272 479.249 353.272C478.169 353.272 477.281 352.384 477.281 351.328ZM487.466 360.208V367H484.274V355.192H487.37V356.656C488.09 355.432 489.506 354.88 490.778 354.88C493.706 354.88 495.05 356.968 495.05 359.56V367H491.858V360.112C491.858 358.792 491.21 357.76 489.674 357.76C488.282 357.76 487.466 358.84 487.466 360.208ZM501.482 367H498.29V355.192H501.482V367ZM497.906 351.328C497.906 350.224 498.794 349.336 499.874 349.336C500.978 349.336 501.842 350.224 501.842 351.328C501.842 352.384 500.978 353.272 499.874 353.272C498.794 353.272 497.906 352.384 497.906 351.328ZM508.091 360.208V367H504.899V355.192H507.995V356.656C508.715 355.432 510.131 354.88 511.403 354.88C514.331 354.88 515.675 356.968 515.675 359.56V367H512.483V360.112C512.483 358.792 511.835 357.76 510.299 357.76C508.907 357.76 508.091 358.84 508.091 360.208ZM518.075 367.648L520.955 366.88C521.171 368.176 522.203 369.112 523.715 369.112C525.731 369.112 526.859 368.104 526.859 365.824V364.96C526.379 365.728 525.275 366.472 523.571 366.472C520.427 366.472 518.075 364.048 518.075 360.736C518.075 357.616 520.331 354.976 523.571 354.976C525.443 354.976 526.523 355.792 526.931 356.584V355.192H530.003V365.728C530.003 368.968 528.251 371.92 523.811 371.92C520.571 371.92 518.411 369.904 518.075 367.648ZM524.123 363.736C525.755 363.736 526.907 362.56 526.907 360.736C526.907 358.912 525.659 357.76 524.123 357.76C522.539 357.76 521.291 358.912 521.291 360.736C521.291 362.584 522.467 363.736 524.123 363.736ZM544.469 357.784C542.837 357.784 541.469 358.96 541.469 361.096C541.469 363.232 542.861 364.432 544.493 364.432C546.125 364.432 546.941 363.352 547.205 362.44L550.013 363.376C549.485 365.344 547.637 367.36 544.493 367.36C541.013 367.36 538.277 364.72 538.277 361.096C538.277 357.448 540.965 354.832 544.397 354.832C547.613 354.832 549.437 356.824 549.941 358.816L547.085 359.776C546.797 358.792 546.053 357.784 544.469 357.784ZM559.901 367C559.853 366.76 559.805 366.208 559.805 365.728C559.157 366.832 557.789 367.312 556.541 367.312C553.685 367.312 552.053 365.224 552.053 362.656V355.192H555.245V362.008C555.245 363.328 555.917 364.384 557.405 364.384C558.821 364.384 559.637 363.424 559.637 362.056V355.192H562.829V364.864C562.829 365.776 562.901 366.592 562.949 367H559.901ZM570.171 351.664V355.192H572.547V358.024H570.171V362.968C570.171 364 570.651 364.336 571.563 364.336C571.947 364.336 572.379 364.288 572.547 364.24V366.88C572.259 367 571.683 367.168 570.747 367.168C568.443 367.168 567.003 365.8 567.003 363.52V358.024H564.867V355.192H565.467C566.715 355.192 567.291 354.376 567.291 353.32V351.664H570.171ZM579.124 351.664V355.192H581.5V358.024H579.124V362.968C579.124 364 579.604 364.336 580.516 364.336C580.9 364.336 581.332 364.288 581.5 364.24V366.88C581.212 367 580.636 367.168 579.7 367.168C577.396 367.168 575.956 365.8 575.956 363.52V358.024H573.82V355.192H574.42C575.668 355.192 576.244 354.376 576.244 353.32V351.664H579.124ZM587.404 367H584.212V355.192H587.404V367ZM583.828 351.328C583.828 350.224 584.716 349.336 585.796 349.336C586.9 349.336 587.764 350.224 587.764 351.328C587.764 352.384 586.9 353.272 585.796 353.272C584.716 353.272 583.828 352.384 583.828 351.328ZM594.013 360.208V367H590.821V355.192H593.917V356.656C594.637 355.432 596.053 354.88 597.325 354.88C600.253 354.88 601.597 356.968 601.597 359.56V367H598.405V360.112C598.405 358.792 597.757 357.76 596.221 357.76C594.829 357.76 594.013 358.84 594.013 360.208ZM603.997 367.648L606.877 366.88C607.093 368.176 608.125 369.112 609.637 369.112C611.653 369.112 612.781 368.104 612.781 365.824V364.96C612.301 365.728 611.197 366.472 609.493 366.472C606.349 366.472 603.997 364.048 603.997 360.736C603.997 357.616 606.253 354.976 609.493 354.976C611.365 354.976 612.445 355.792 612.853 356.584V355.192H615.925V365.728C615.925 368.968 614.173 371.92 609.733 371.92C606.493 371.92 604.333 369.904 603.997 367.648ZM610.045 363.736C611.677 363.736 612.829 362.56 612.829 360.736C612.829 358.912 611.581 357.76 610.045 357.76C608.461 357.76 607.213 358.912 607.213 360.736C607.213 362.584 608.389 363.736 610.045 363.736ZM625.423 361.288H618.463V358.456H625.423V361.288ZM8.032 391.752H13.312C13.264 390.576 12.496 389.424 10.672 389.424C9.016 389.424 8.104 390.672 8.032 391.752ZM13.624 394.824L16.288 395.616C15.688 397.656 13.816 399.36 10.912 399.36C7.672 399.36 4.816 397.032 4.816 393.048C4.816 389.28 7.6 386.832 10.624 386.832C14.272 386.832 16.456 389.16 16.456 392.952C16.456 393.408 16.408 393.888 16.408 393.936H7.96C8.032 395.496 9.352 396.624 10.936 396.624C12.424 396.624 13.24 395.88 13.624 394.824ZM30.2256 381.624V396.864C30.2256 397.656 30.2736 398.52 30.3216 399H27.2736C27.2256 398.76 27.1536 398.184 27.1536 397.632C26.6256 398.568 25.4256 399.288 23.8416 399.288C20.4816 399.288 18.0816 396.648 18.0816 393.072C18.0816 389.616 20.4096 386.904 23.7456 386.904C25.7856 386.904 26.7456 387.744 27.0816 388.368V381.624H30.2256ZM21.2976 393.072C21.2976 395.184 22.5456 396.432 24.2256 396.432C25.8576 396.432 27.1296 395.184 27.1296 393.048C27.1296 390.936 25.8576 389.76 24.2256 389.76C22.5936 389.76 21.2976 390.96 21.2976 393.072ZM32.8484 399.648L35.7284 398.88C35.9444 400.176 36.9764 401.112 38.4884 401.112C40.5044 401.112 41.6324 400.104 41.6324 397.824V396.96C41.1524 397.728 40.0484 398.472 38.3444 398.472C35.2004 398.472 32.8484 396.048 32.8484 392.736C32.8484 389.616 35.1044 386.976 38.3444 386.976C40.2164 386.976 41.2964 387.792 41.7044 388.584V387.192H44.7764V397.728C44.7764 400.968 43.0244 403.92 38.5844 403.92C35.3444 403.92 33.1844 401.904 32.8484 399.648ZM38.8964 395.736C40.5284 395.736 41.6804 394.56 41.6804 392.736C41.6804 390.912 40.4324 389.76 38.8964 389.76C37.3124 389.76 36.0644 390.912 36.0644 392.736C36.0644 394.584 37.2404 395.736 38.8964 395.736ZM50.3367 391.752H55.6167C55.5687 390.576 54.8007 389.424 52.9767 389.424C51.3207 389.424 50.4087 390.672 50.3367 391.752ZM55.9287 394.824L58.5927 395.616C57.9927 397.656 56.1207 399.36 53.2167 399.36C49.9767 399.36 47.1207 397.032 47.1207 393.048C47.1207 389.28 49.9047 386.832 52.9287 386.832C56.5767 386.832 58.7607 389.16 58.7607 392.952C58.7607 393.408 58.7127 393.888 58.7127 393.936H50.2647C50.3367 395.496 51.6567 396.624 53.2407 396.624C54.7287 396.624 55.5447 395.88 55.9287 394.824ZM71.14 383.664V387.192H73.516V390.024H71.14V394.968C71.14 396 71.62 396.336 72.532 396.336C72.916 396.336 73.348 396.288 73.516 396.24V398.88C73.228 399 72.652 399.168 71.716 399.168C69.412 399.168 67.972 397.8 67.972 395.52V390.024H65.836V387.192H66.436C67.684 387.192 68.26 386.376 68.26 385.32V383.664H71.14ZM78.4383 391.752H83.7183C83.6703 390.576 82.9023 389.424 81.0783 389.424C79.4223 389.424 78.5103 390.672 78.4383 391.752ZM84.0303 394.824L86.6943 395.616C86.0943 397.656 84.2223 399.36 81.3183 399.36C78.0783 399.36 75.2223 397.032 75.2223 393.048C75.2223 389.28 78.0063 386.832 81.0303 386.832C84.6783 386.832 86.8623 389.16 86.8623 392.952C86.8623 393.408 86.8143 393.888 86.8143 393.936H78.3663C78.4383 395.496 79.7583 396.624 81.3423 396.624C82.8303 396.624 83.6463 395.88 84.0303 394.824ZM94.6799 389.784C93.0479 389.784 91.6799 390.96 91.6799 393.096C91.6799 395.232 93.0719 396.432 94.7039 396.432C96.3359 396.432 97.1519 395.352 97.4159 394.44L100.224 395.376C99.6959 397.344 97.8479 399.36 94.7039 399.36C91.2239 399.36 88.4879 396.72 88.4879 393.096C88.4879 389.448 91.1759 386.832 94.6079 386.832C97.8239 386.832 99.6479 388.824 100.152 390.816L97.2959 391.776C97.0079 390.792 96.2639 389.784 94.6799 389.784ZM105.763 392.064V399H102.571V381.624H105.763V388.176C106.531 387.264 107.827 386.88 108.955 386.88C111.955 386.88 113.347 388.968 113.347 391.56V399H110.155V392.112C110.155 390.792 109.507 389.76 107.971 389.76C106.627 389.76 105.835 390.768 105.763 392.064ZM119.779 392.208V399H116.587V387.192H119.683V388.656C120.403 387.432 121.819 386.88 123.091 386.88C126.019 386.88 127.363 388.968 127.363 391.56V399H124.171V392.112C124.171 390.792 123.523 389.76 121.987 389.76C120.595 389.76 119.779 390.84 119.779 392.208ZM135.906 396.456C137.466 396.456 138.906 395.328 138.906 393.096C138.906 390.864 137.466 389.736 135.906 389.736C134.346 389.736 132.906 390.864 132.906 393.096C132.906 395.304 134.346 396.456 135.906 396.456ZM135.906 386.832C139.434 386.832 142.098 389.448 142.098 393.096C142.098 396.72 139.434 399.36 135.906 399.36C132.378 399.36 129.714 396.72 129.714 393.096C129.714 389.448 132.378 386.832 135.906 386.832ZM147.81 399H144.618V381.624H147.81V399ZM156.531 396.456C158.091 396.456 159.531 395.328 159.531 393.096C159.531 390.864 158.091 389.736 156.531 389.736C154.971 389.736 153.531 390.864 153.531 393.096C153.531 395.304 154.971 396.456 156.531 396.456ZM156.531 386.832C160.059 386.832 162.723 389.448 162.723 393.096C162.723 396.72 160.059 399.36 156.531 399.36C153.003 399.36 150.339 396.72 150.339 393.096C150.339 389.448 153.003 386.832 156.531 386.832ZM164.403 399.648L167.283 398.88C167.499 400.176 168.531 401.112 170.043 401.112C172.059 401.112 173.187 400.104 173.187 397.824V396.96C172.707 397.728 171.603 398.472 169.899 398.472C166.755 398.472 164.403 396.048 164.403 392.736C164.403 389.616 166.659 386.976 169.899 386.976C171.771 386.976 172.851 387.792 173.259 388.584V387.192H176.331V397.728C176.331 400.968 174.579 403.92 170.139 403.92C166.899 403.92 164.739 401.904 164.403 399.648ZM170.451 395.736C172.083 395.736 173.235 394.56 173.235 392.736C173.235 390.912 171.987 389.76 170.451 389.76C168.867 389.76 167.619 390.912 167.619 392.736C167.619 394.584 168.795 395.736 170.451 395.736ZM183.526 403.656H180.142L182.926 397.512L177.91 387.192H181.486L184.63 394.104L187.534 387.192H190.942L183.526 403.656ZM205.502 387.192H208.862L211.406 394.8L213.59 387.192H216.758L213.062 399H209.87L207.11 390.936L204.398 399H201.158L197.39 387.192H200.75L202.934 394.776L205.502 387.192ZM221.943 399H218.751V387.192H221.943V399ZM218.367 383.328C218.367 382.224 219.255 381.336 220.335 381.336C221.439 381.336 222.303 382.224 222.303 383.328C222.303 384.384 221.439 385.272 220.335 385.272C219.255 385.272 218.367 384.384 218.367 383.328ZM229.296 383.664V387.192H231.672V390.024H229.296V394.968C229.296 396 229.776 396.336 230.688 396.336C231.072 396.336 231.504 396.288 231.672 396.24V398.88C231.384 399 230.808 399.168 229.872 399.168C227.568 399.168 226.128 397.8 226.128 395.52V390.024H223.992V387.192H224.592C225.84 387.192 226.416 386.376 226.416 385.32V383.664H229.296ZM236.99 392.064V399H233.798V381.624H236.99V388.176C237.758 387.264 239.054 386.88 240.182 386.88C243.182 386.88 244.574 388.968 244.574 391.56V399H241.382V392.112C241.382 390.792 240.734 389.76 239.198 389.76C237.854 389.76 237.062 390.768 236.99 392.064ZM256.935 399H253.743V381.624H256.935V399ZM265.656 396.456C267.216 396.456 268.656 395.328 268.656 393.096C268.656 390.864 267.216 389.736 265.656 389.736C264.096 389.736 262.656 390.864 262.656 393.096C262.656 395.304 264.096 396.456 265.656 396.456ZM265.656 386.832C269.184 386.832 271.848 389.448 271.848 393.096C271.848 396.72 269.184 399.36 265.656 399.36C262.128 399.36 259.464 396.72 259.464 393.096C259.464 389.448 262.128 386.832 265.656 386.832ZM279.672 389.784C278.04 389.784 276.672 390.96 276.672 393.096C276.672 395.232 278.064 396.432 279.696 396.432C281.328 396.432 282.144 395.352 282.408 394.44L285.216 395.376C284.688 397.344 282.84 399.36 279.696 399.36C276.216 399.36 273.48 396.72 273.48 393.096C273.48 389.448 276.168 386.832 279.6 386.832C282.816 386.832 284.64 388.824 285.144 390.816L282.288 391.776C282 390.792 281.256 389.784 279.672 389.784ZM286.797 395.784C286.797 393.672 288.357 392.496 290.325 392.208L293.229 391.776C293.901 391.68 294.117 391.344 294.117 390.936C294.117 390.096 293.469 389.4 292.125 389.4C290.733 389.4 289.965 390.288 289.869 391.32L287.037 390.72C287.229 388.872 288.933 386.832 292.101 386.832C295.845 386.832 297.237 388.944 297.237 391.32V397.128C297.237 397.752 297.309 398.592 297.381 399H294.453C294.381 398.688 294.333 398.04 294.333 397.584C293.733 398.52 292.605 399.336 290.853 399.336C288.333 399.336 286.797 397.632 286.797 395.784ZM291.525 396.96C292.868 396.96 294.117 396.312 294.117 394.224V393.696L291.453 394.104C290.637 394.224 289.989 394.68 289.989 395.592C289.989 396.288 290.493 396.96 291.525 396.96ZM303.646 399H300.454V381.624H303.646V399ZM316.185 399H312.993V381.624H316.185V399ZM321.93 391.752H327.21C327.162 390.576 326.394 389.424 324.57 389.424C322.914 389.424 322.002 390.672 321.93 391.752ZM327.522 394.824L330.186 395.616C329.586 397.656 327.714 399.36 324.81 399.36C321.57 399.36 318.714 397.032 318.714 393.048C318.714 389.28 321.498 386.832 324.522 386.832C328.17 386.832 330.354 389.16 330.354 392.952C330.354 393.408 330.306 393.888 330.306 393.936H321.858C321.93 395.496 323.25 396.624 324.834 396.624C326.322 396.624 327.138 395.88 327.522 394.824ZM332.028 399.648L334.908 398.88C335.124 400.176 336.156 401.112 337.668 401.112C339.684 401.112 340.812 400.104 340.812 397.824V396.96C340.332 397.728 339.228 398.472 337.524 398.472C334.38 398.472 332.028 396.048 332.028 392.736C332.028 389.616 334.284 386.976 337.524 386.976C339.396 386.976 340.476 387.792 340.884 388.584V387.192H343.956V397.728C343.956 400.968 342.204 403.92 337.764 403.92C334.524 403.92 332.364 401.904 332.028 399.648ZM338.076 395.736C339.708 395.736 340.86 394.56 340.86 392.736C340.86 390.912 339.612 389.76 338.076 389.76C336.492 389.76 335.244 390.912 335.244 392.736C335.244 394.584 336.42 395.736 338.076 395.736ZM346.351 395.784C346.351 393.672 347.911 392.496 349.879 392.208L352.783 391.776C353.455 391.68 353.671 391.344 353.671 390.936C353.671 390.096 353.023 389.4 351.679 389.4C350.287 389.4 349.519 390.288 349.423 391.32L346.591 390.72C346.783 388.872 348.487 386.832 351.655 386.832C355.399 386.832 356.791 388.944 356.791 391.32V397.128C356.791 397.752 356.863 398.592 356.935 399H354.007C353.935 398.688 353.887 398.04 353.887 397.584C353.287 398.52 352.159 399.336 350.407 399.336C347.887 399.336 346.351 397.632 346.351 395.784ZM351.079 396.96C352.423 396.96 353.671 396.312 353.671 394.224V393.696L351.007 394.104C350.191 394.224 349.543 394.68 349.543 395.592C349.543 396.288 350.047 396.96 351.079 396.96ZM363.201 399H360.009V381.624H363.201V399ZM374.876 391.752H380.156C380.108 390.576 379.34 389.424 377.516 389.424C375.86 389.424 374.948 390.672 374.876 391.752ZM380.468 394.824L383.132 395.616C382.532 397.656 380.66 399.36 377.756 399.36C374.516 399.36 371.66 397.032 371.66 393.048C371.66 389.28 374.444 386.832 377.468 386.832C381.116 386.832 383.3 389.16 383.3 392.952C383.3 393.408 383.252 393.888 383.252 393.936H374.804C374.876 395.496 376.196 396.624 377.78 396.624C379.268 396.624 380.084 395.88 380.468 394.824ZM384.21 399L388.41 393.072L384.21 387.192H388.002C388.41 387.84 389.946 390.048 390.354 390.696L392.682 387.192H396.306L392.178 392.976L396.45 399H392.706L390.234 395.376C389.802 396.024 388.218 398.352 387.81 399H384.21ZM401.591 403.56H398.399V387.192H401.495V388.632C402.023 387.72 403.343 386.928 405.119 386.928C408.575 386.928 410.567 389.568 410.567 393.072C410.567 396.648 408.335 399.288 404.999 399.288C403.367 399.288 402.167 398.64 401.591 397.848V403.56ZM407.423 393.096C407.423 391.008 406.127 389.784 404.495 389.784C402.863 389.784 401.543 391.008 401.543 393.096C401.543 395.184 402.863 396.432 404.495 396.432C406.127 396.432 407.423 395.208 407.423 393.096ZM415.423 391.752H420.703C420.655 390.576 419.887 389.424 418.063 389.424C416.407 389.424 415.495 390.672 415.423 391.752ZM421.015 394.824L423.679 395.616C423.079 397.656 421.207 399.36 418.303 399.36C415.063 399.36 412.207 397.032 412.207 393.048C412.207 389.28 414.991 386.832 418.015 386.832C421.663 386.832 423.847 389.16 423.847 392.952C423.847 393.408 423.799 393.888 423.799 393.936H415.351C415.423 395.496 416.743 396.624 418.327 396.624C419.815 396.624 420.631 395.88 421.015 394.824ZM433.56 387.144V390.36C433.2 390.288 432.888 390.264 432.6 390.264C430.968 390.264 429.552 391.056 429.552 393.6V399H426.36V387.192H429.456V388.944C430.176 387.384 431.808 387.096 432.816 387.096C433.08 387.096 433.32 387.12 433.56 387.144ZM440.21 383.664V387.192H442.586V390.024H440.21V394.968C440.21 396 440.69 396.336 441.602 396.336C441.986 396.336 442.418 396.288 442.586 396.24V398.88C442.298 399 441.722 399.168 440.786 399.168C438.482 399.168 437.042 397.8 437.042 395.52V390.024H434.906V387.192H435.506C436.754 387.192 437.33 386.376 437.33 385.32V383.664H440.21ZM448.49 399H445.298V387.192H448.49V399ZM444.914 383.328C444.914 382.224 445.802 381.336 446.882 381.336C447.986 381.336 448.85 382.224 448.85 383.328C448.85 384.384 447.986 385.272 446.882 385.272C445.802 385.272 444.914 384.384 444.914 383.328ZM450.899 395.712L453.635 395.112C453.707 396.048 454.403 396.912 455.795 396.912C456.851 396.912 457.355 396.36 457.355 395.736C457.355 395.208 456.995 394.776 456.083 394.584L454.523 394.224C452.243 393.72 451.211 392.352 451.211 390.696C451.211 388.584 453.083 386.832 455.627 386.832C458.987 386.832 460.115 388.968 460.259 390.24L457.595 390.84C457.499 390.144 456.995 389.256 455.651 389.256C454.811 389.256 454.139 389.76 454.139 390.432C454.139 391.008 454.571 391.368 455.219 391.488L456.899 391.848C459.227 392.328 460.403 393.744 460.403 395.472C460.403 397.392 458.915 399.36 455.819 399.36C452.267 399.36 451.043 397.056 450.899 395.712ZM465.251 391.752H470.531C470.483 390.576 469.715 389.424 467.891 389.424C466.235 389.424 465.323 390.672 465.251 391.752ZM470.843 394.824L473.507 395.616C472.907 397.656 471.035 399.36 468.131 399.36C464.891 399.36 462.035 397.032 462.035 393.048C462.035 389.28 464.819 386.832 467.843 386.832C471.491 386.832 473.675 389.16 473.675 392.952C473.675 393.408 473.627 393.888 473.627 393.936H465.179C465.251 395.496 466.571 396.624 468.155 396.624C469.643 396.624 470.459 395.88 470.843 394.824ZM475.739 396.984C475.739 395.784 476.723 394.8 477.923 394.8C479.147 394.8 480.131 395.784 480.131 396.984C480.131 398.184 479.147 399.168 477.923 399.168C476.723 399.168 475.739 398.184 475.739 396.984Z" fill="#888888"/>
<rect x="4" y="438" width="191" height="78" rx="8" fill="#5345BD"/>
<path d="M49.8849 474.362H47.2287C47.1529 473.927 47.0133 473.541 46.8097 473.205C46.6061 472.864 46.3527 472.575 46.0497 472.338C45.7467 472.101 45.401 471.924 45.0128 471.805C44.6293 471.682 44.215 471.621 43.7699 471.621C42.9792 471.621 42.2784 471.82 41.6676 472.217C41.0568 472.61 40.5786 473.188 40.233 473.95C39.8873 474.708 39.7145 475.634 39.7145 476.727C39.7145 477.84 39.8873 478.777 40.233 479.54C40.5833 480.297 41.0616 480.87 41.6676 481.259C42.2784 481.642 42.9768 481.834 43.7628 481.834C44.1984 481.834 44.6056 481.777 44.9844 481.663C45.3679 481.545 45.7112 481.372 46.0142 481.145C46.322 480.918 46.58 480.638 46.7884 480.307C47.0014 479.975 47.1482 479.597 47.2287 479.17L49.8849 479.185C49.7855 479.876 49.5701 480.525 49.2386 481.131C48.9119 481.737 48.4834 482.272 47.9531 482.736C47.4228 483.195 46.8026 483.555 46.0923 483.815C45.3821 484.071 44.5938 484.199 43.7273 484.199C42.4489 484.199 41.3078 483.903 40.304 483.311C39.3002 482.719 38.5095 481.865 37.9318 480.747C37.3542 479.63 37.0653 478.29 37.0653 476.727C37.0653 475.16 37.3565 473.82 37.9389 472.707C38.5213 471.59 39.3144 470.735 40.3182 470.143C41.322 469.552 42.4583 469.256 43.7273 469.256C44.5369 469.256 45.2898 469.369 45.9858 469.597C46.6818 469.824 47.3021 470.158 47.8466 470.598C48.3911 471.034 48.8385 471.569 49.1889 472.203C49.544 472.833 49.776 473.553 49.8849 474.362ZM55.3235 484.22C54.6322 484.22 54.0096 484.097 53.4556 483.851C52.9064 483.6 52.4708 483.231 52.1488 482.743C51.8316 482.255 51.6729 481.654 51.6729 480.939C51.6729 480.323 51.7866 479.814 52.0138 479.412C52.2411 479.009 52.5513 478.688 52.9442 478.446C53.3372 478.205 53.7799 478.022 54.2724 477.899C54.7695 477.771 55.2833 477.679 55.8136 477.622C56.4528 477.556 56.9712 477.497 57.369 477.445C57.7667 477.388 58.0555 477.303 58.2354 477.189C58.4201 477.071 58.5124 476.888 58.5124 476.642V476.599C58.5124 476.064 58.3538 475.65 58.0366 475.357C57.7193 475.063 57.2624 474.916 56.6658 474.916C56.0361 474.916 55.5366 475.054 55.1673 475.328C54.8027 475.603 54.5565 475.927 54.4286 476.301L52.0281 475.96C52.2174 475.297 52.5299 474.743 52.9656 474.298C53.4012 473.848 53.9338 473.512 54.5636 473.29C55.1933 473.062 55.8893 472.949 56.6516 472.949C57.1772 472.949 57.7004 473.01 58.2212 473.134C58.7421 473.257 59.2179 473.46 59.6488 473.744C60.0797 474.024 60.4253 474.405 60.6857 474.888C60.9509 475.371 61.0835 475.974 61.0835 476.699V484H58.6119V482.501H58.5266C58.3704 482.804 58.1502 483.089 57.8661 483.354C57.5868 483.614 57.234 483.825 56.8079 483.986C56.3865 484.142 55.8917 484.22 55.3235 484.22ZM55.9911 482.331C56.5072 482.331 56.9547 482.229 57.3335 482.026C57.7122 481.817 58.0034 481.543 58.207 481.202C58.4154 480.861 58.5195 480.489 58.5195 480.087V478.801C58.439 478.867 58.3017 478.929 58.1076 478.986C57.9182 479.043 57.7051 479.092 57.4684 479.135C57.2317 479.178 56.9973 479.215 56.7653 479.249C56.5333 479.282 56.332 479.31 56.1616 479.334C55.7781 479.386 55.4348 479.471 55.1317 479.589C54.8287 479.708 54.5896 479.874 54.4144 480.087C54.2392 480.295 54.1516 480.565 54.1516 480.896C54.1516 481.37 54.3245 481.727 54.6701 481.969C55.0157 482.21 55.4561 482.331 55.9911 482.331ZM66.2397 469.455V484H63.6687V469.455H66.2397ZM71.4545 469.455V484H68.8835V469.455H71.4545ZM84.5067 473.091V475.08H78.2354V473.091H84.5067ZM79.7837 470.477H82.3548V480.719C82.3548 481.064 82.4068 481.33 82.511 481.514C82.6199 481.694 82.762 481.817 82.9371 481.884C83.1123 481.95 83.3065 481.983 83.5195 481.983C83.6805 481.983 83.8273 481.971 83.9599 481.947C84.0972 481.924 84.2013 481.902 84.2724 481.884L84.7056 483.893C84.5683 483.941 84.3718 483.993 84.1161 484.05C83.8652 484.107 83.5574 484.14 83.1928 484.149C82.5489 484.168 81.9689 484.071 81.4528 483.858C80.9367 483.64 80.5271 483.304 80.2241 482.849C79.9258 482.395 79.779 481.827 79.7837 481.145V470.477ZM91.2983 484.213C90.233 484.213 89.3097 483.979 88.5284 483.51C87.7472 483.041 87.1411 482.385 86.7102 481.543C86.2841 480.7 86.071 479.715 86.071 478.588C86.071 477.461 86.2841 476.474 86.7102 475.626C87.1411 474.779 87.7472 474.121 88.5284 473.652C89.3097 473.183 90.233 472.949 91.2983 472.949C92.3636 472.949 93.2869 473.183 94.0682 473.652C94.8494 474.121 95.4531 474.779 95.8793 475.626C96.3101 476.474 96.5256 477.461 96.5256 478.588C96.5256 479.715 96.3101 480.7 95.8793 481.543C95.4531 482.385 94.8494 483.041 94.0682 483.51C93.2869 483.979 92.3636 484.213 91.2983 484.213ZM91.3125 482.153C91.8902 482.153 92.3731 481.995 92.7614 481.678C93.1496 481.356 93.4384 480.925 93.6278 480.385C93.822 479.845 93.919 479.244 93.919 478.581C93.919 477.913 93.822 477.31 93.6278 476.77C93.4384 476.225 93.1496 475.792 92.7614 475.47C92.3731 475.148 91.8902 474.987 91.3125 474.987C90.7206 474.987 90.2282 475.148 89.8352 475.47C89.447 475.792 89.1558 476.225 88.9616 476.77C88.7723 477.31 88.6776 477.913 88.6776 478.581C88.6776 479.244 88.7723 479.845 88.9616 480.385C89.1558 480.925 89.447 481.356 89.8352 481.678C90.2282 481.995 90.7206 482.153 91.3125 482.153ZM106.808 484.22C106.117 484.22 105.494 484.097 104.94 483.851C104.391 483.6 103.955 483.231 103.633 482.743C103.316 482.255 103.157 481.654 103.157 480.939C103.157 480.323 103.271 479.814 103.498 479.412C103.725 479.009 104.036 478.688 104.429 478.446C104.822 478.205 105.264 478.022 105.757 477.899C106.254 477.771 106.768 477.679 107.298 477.622C107.937 477.556 108.456 477.497 108.853 477.445C109.251 477.388 109.54 477.303 109.72 477.189C109.904 477.071 109.997 476.888 109.997 476.642V476.599C109.997 476.064 109.838 475.65 109.521 475.357C109.204 475.063 108.747 474.916 108.15 474.916C107.52 474.916 107.021 475.054 106.652 475.328C106.287 475.603 106.041 475.927 105.913 476.301L103.512 475.96C103.702 475.297 104.014 474.743 104.45 474.298C104.886 473.848 105.418 473.512 106.048 473.29C106.678 473.062 107.374 472.949 108.136 472.949C108.662 472.949 109.185 473.01 109.706 473.134C110.226 473.257 110.702 473.46 111.133 473.744C111.564 474.024 111.91 474.405 112.17 474.888C112.435 475.371 112.568 475.974 112.568 476.699V484H110.096V482.501H110.011C109.855 482.804 109.635 483.089 109.35 483.354C109.071 483.614 108.718 483.825 108.292 483.986C107.871 484.142 107.376 484.22 106.808 484.22ZM107.475 482.331C107.992 482.331 108.439 482.229 108.818 482.026C109.197 481.817 109.488 481.543 109.691 481.202C109.9 480.861 110.004 480.489 110.004 480.087V478.801C109.923 478.867 109.786 478.929 109.592 478.986C109.403 479.043 109.19 479.092 108.953 479.135C108.716 479.178 108.482 479.215 108.25 479.249C108.018 479.282 107.816 479.31 107.646 479.334C107.262 479.386 106.919 479.471 106.616 479.589C106.313 479.708 106.074 479.874 105.899 480.087C105.724 480.295 105.636 480.565 105.636 480.896C105.636 481.37 105.809 481.727 106.154 481.969C106.5 482.21 106.94 482.331 107.475 482.331ZM119.912 484.213C118.823 484.213 117.887 483.974 117.106 483.496C116.33 483.018 115.731 482.357 115.309 481.514C114.893 480.667 114.684 479.691 114.684 478.588C114.684 477.48 114.897 476.502 115.324 475.655C115.75 474.803 116.351 474.14 117.127 473.666C117.909 473.188 118.832 472.949 119.897 472.949C120.783 472.949 121.566 473.112 122.248 473.439C122.935 473.761 123.482 474.218 123.889 474.81C124.296 475.397 124.528 476.083 124.585 476.869H122.127C122.028 476.344 121.791 475.906 121.417 475.555C121.048 475.2 120.553 475.023 119.933 475.023C119.407 475.023 118.946 475.165 118.548 475.449C118.15 475.728 117.84 476.131 117.618 476.656C117.4 477.182 117.291 477.812 117.291 478.545C117.291 479.289 117.4 479.928 117.618 480.463C117.835 480.993 118.141 481.403 118.534 481.692C118.931 481.976 119.398 482.118 119.933 482.118C120.312 482.118 120.65 482.047 120.949 481.905C121.252 481.758 121.505 481.547 121.708 481.273C121.912 480.998 122.052 480.664 122.127 480.271H124.585C124.523 481.043 124.296 481.727 123.903 482.324C123.51 482.916 122.975 483.38 122.298 483.716C121.621 484.047 120.825 484.213 119.912 484.213ZM132.143 473.091V475.08H125.872V473.091H132.143ZM127.42 470.477H129.991V480.719C129.991 481.064 130.044 481.33 130.148 481.514C130.257 481.694 130.399 481.817 130.574 481.884C130.749 481.95 130.943 481.983 131.156 481.983C131.317 481.983 131.464 481.971 131.597 481.947C131.734 481.924 131.838 481.902 131.909 481.884L132.342 483.893C132.205 483.941 132.009 483.993 131.753 484.05C131.502 484.107 131.194 484.14 130.83 484.149C130.186 484.168 129.606 484.071 129.089 483.858C128.573 483.64 128.164 483.304 127.861 482.849C127.563 482.395 127.416 481.827 127.42 481.145V470.477ZM134.294 484V473.091H136.865V484H134.294ZM135.586 471.543C135.179 471.543 134.829 471.408 134.535 471.138C134.242 470.863 134.095 470.534 134.095 470.151C134.095 469.762 134.242 469.433 134.535 469.163C134.829 468.889 135.179 468.751 135.586 468.751C135.998 468.751 136.349 468.889 136.637 469.163C136.931 469.433 137.078 469.762 137.078 470.151C137.078 470.534 136.931 470.863 136.637 471.138C136.349 471.408 135.998 471.543 135.586 471.543ZM144.267 484.213C143.202 484.213 142.278 483.979 141.497 483.51C140.716 483.041 140.11 482.385 139.679 481.543C139.253 480.7 139.04 479.715 139.04 478.588C139.04 477.461 139.253 476.474 139.679 475.626C140.11 474.779 140.716 474.121 141.497 473.652C142.278 473.183 143.202 472.949 144.267 472.949C145.332 472.949 146.256 473.183 147.037 473.652C147.818 474.121 148.422 474.779 148.848 475.626C149.279 476.474 149.494 477.461 149.494 478.588C149.494 479.715 149.279 480.7 148.848 481.543C148.422 482.385 147.818 483.041 147.037 483.51C146.256 483.979 145.332 484.213 144.267 484.213ZM144.281 482.153C144.859 482.153 145.342 481.995 145.73 481.678C146.118 481.356 146.407 480.925 146.597 480.385C146.791 479.845 146.888 479.244 146.888 478.581C146.888 477.913 146.791 477.31 146.597 476.77C146.407 476.225 146.118 475.792 145.73 475.47C145.342 475.148 144.859 474.987 144.281 474.987C143.689 474.987 143.197 475.148 142.804 475.47C142.416 475.792 142.125 476.225 141.93 476.77C141.741 477.31 141.646 477.913 141.646 478.581C141.646 479.244 141.741 479.845 141.93 480.385C142.125 480.925 142.416 481.356 142.804 481.678C143.197 481.995 143.689 482.153 144.281 482.153ZM154.248 477.608V484H151.676V473.091H154.134V474.945H154.262C154.513 474.334 154.913 473.848 155.462 473.489C156.016 473.129 156.7 472.949 157.515 472.949C158.267 472.949 158.923 473.11 159.482 473.432C160.045 473.754 160.481 474.22 160.789 474.831C161.101 475.442 161.255 476.183 161.25 477.054V484H158.679V477.452C158.679 476.723 158.49 476.152 158.111 475.74C157.737 475.328 157.219 475.122 156.556 475.122C156.106 475.122 155.706 475.222 155.355 475.42C155.01 475.615 154.738 475.896 154.539 476.266C154.345 476.635 154.248 477.082 154.248 477.608Z" fill="white"/>
<path d="M264.885 474.362H262.229C262.153 473.927 262.013 473.541 261.81 473.205C261.606 472.864 261.353 472.575 261.05 472.338C260.747 472.101 260.401 471.924 260.013 471.805C259.629 471.682 259.215 471.621 258.77 471.621C257.979 471.621 257.278 471.82 256.668 472.217C256.057 472.61 255.579 473.188 255.233 473.95C254.887 474.708 254.714 475.634 254.714 476.727C254.714 477.84 254.887 478.777 255.233 479.54C255.583 480.297 256.062 480.87 256.668 481.259C257.278 481.642 257.977 481.834 258.763 481.834C259.198 481.834 259.606 481.777 259.984 481.663C260.368 481.545 260.711 481.372 261.014 481.145C261.322 480.918 261.58 480.638 261.788 480.307C262.001 479.975 262.148 479.597 262.229 479.17L264.885 479.185C264.786 479.876 264.57 480.525 264.239 481.131C263.912 481.737 263.483 482.272 262.953 482.736C262.423 483.195 261.803 483.555 261.092 483.815C260.382 484.071 259.594 484.199 258.727 484.199C257.449 484.199 256.308 483.903 255.304 483.311C254.3 482.719 253.509 481.865 252.932 480.747C252.354 479.63 252.065 478.29 252.065 476.727C252.065 475.16 252.357 473.82 252.939 472.707C253.521 471.59 254.314 470.735 255.318 470.143C256.322 469.552 257.458 469.256 258.727 469.256C259.537 469.256 260.29 469.369 260.986 469.597C261.682 469.824 262.302 470.158 262.847 470.598C263.391 471.034 263.839 471.569 264.189 472.203C264.544 472.833 264.776 473.553 264.885 474.362ZM270.324 484.22C269.632 484.22 269.01 484.097 268.456 483.851C267.906 483.6 267.471 483.231 267.149 482.743C266.832 482.255 266.673 481.654 266.673 480.939C266.673 480.323 266.787 479.814 267.014 479.412C267.241 479.009 267.551 478.688 267.944 478.446C268.337 478.205 268.78 478.022 269.272 477.899C269.77 477.771 270.283 477.679 270.814 477.622C271.453 477.556 271.971 477.497 272.369 477.445C272.767 477.388 273.056 477.303 273.235 477.189C273.42 477.071 273.512 476.888 273.512 476.642V476.599C273.512 476.064 273.354 475.65 273.037 475.357C272.719 475.063 272.262 474.916 271.666 474.916C271.036 474.916 270.537 475.054 270.167 475.328C269.803 475.603 269.556 475.927 269.429 476.301L267.028 475.96C267.217 475.297 267.53 474.743 267.966 474.298C268.401 473.848 268.934 473.512 269.564 473.29C270.193 473.062 270.889 472.949 271.652 472.949C272.177 472.949 272.7 473.01 273.221 473.134C273.742 473.257 274.218 473.46 274.649 473.744C275.08 474.024 275.425 474.405 275.686 474.888C275.951 475.371 276.083 475.974 276.083 476.699V484H273.612V482.501H273.527C273.37 482.804 273.15 483.089 272.866 483.354C272.587 483.614 272.234 483.825 271.808 483.986C271.386 484.142 270.892 484.22 270.324 484.22ZM270.991 482.331C271.507 482.331 271.955 482.229 272.333 482.026C272.712 481.817 273.003 481.543 273.207 481.202C273.415 480.861 273.52 480.489 273.52 480.087V478.801C273.439 478.867 273.302 478.929 273.108 478.986C272.918 479.043 272.705 479.092 272.468 479.135C272.232 479.178 271.997 479.215 271.765 479.249C271.533 479.282 271.332 479.31 271.162 479.334C270.778 479.386 270.435 479.471 270.132 479.589C269.829 479.708 269.59 479.874 269.414 480.087C269.239 480.295 269.152 480.565 269.152 480.896C269.152 481.37 269.324 481.727 269.67 481.969C270.016 482.21 270.456 482.331 270.991 482.331ZM281.24 469.455V484H278.669V469.455H281.24ZM286.455 469.455V484H283.884V469.455H286.455ZM299.507 473.091V475.08H293.235V473.091H299.507ZM294.784 470.477H297.355V480.719C297.355 481.064 297.407 481.33 297.511 481.514C297.62 481.694 297.762 481.817 297.937 481.884C298.112 481.95 298.306 481.983 298.52 481.983C298.681 481.983 298.827 481.971 298.96 481.947C299.097 481.924 299.201 481.902 299.272 481.884L299.706 483.893C299.568 483.941 299.372 483.993 299.116 484.05C298.865 484.107 298.557 484.14 298.193 484.149C297.549 484.168 296.969 484.071 296.453 483.858C295.937 483.64 295.527 483.304 295.224 482.849C294.926 482.395 294.779 481.827 294.784 481.145V470.477ZM306.298 484.213C305.233 484.213 304.31 483.979 303.528 483.51C302.747 483.041 302.141 482.385 301.71 481.543C301.284 480.7 301.071 479.715 301.071 478.588C301.071 477.461 301.284 476.474 301.71 475.626C302.141 474.779 302.747 474.121 303.528 473.652C304.31 473.183 305.233 472.949 306.298 472.949C307.364 472.949 308.287 473.183 309.068 473.652C309.849 474.121 310.453 474.779 310.879 475.626C311.31 476.474 311.526 477.461 311.526 478.588C311.526 479.715 311.31 480.7 310.879 481.543C310.453 482.385 309.849 483.041 309.068 483.51C308.287 483.979 307.364 484.213 306.298 484.213ZM306.312 482.153C306.89 482.153 307.373 481.995 307.761 481.678C308.15 481.356 308.438 480.925 308.628 480.385C308.822 479.845 308.919 479.244 308.919 478.581C308.919 477.913 308.822 477.31 308.628 476.77C308.438 476.225 308.15 475.792 307.761 475.47C307.373 475.148 306.89 474.987 306.312 474.987C305.721 474.987 305.228 475.148 304.835 475.47C304.447 475.792 304.156 476.225 303.962 476.77C303.772 477.31 303.678 477.913 303.678 478.581C303.678 479.244 303.772 479.845 303.962 480.385C304.156 480.925 304.447 481.356 304.835 481.678C305.228 481.995 305.721 482.153 306.312 482.153ZM321.808 484.22C321.117 484.22 320.494 484.097 319.94 483.851C319.391 483.6 318.955 483.231 318.633 482.743C318.316 482.255 318.157 481.654 318.157 480.939C318.157 480.323 318.271 479.814 318.498 479.412C318.725 479.009 319.036 478.688 319.429 478.446C319.822 478.205 320.264 478.022 320.757 477.899C321.254 477.771 321.768 477.679 322.298 477.622C322.937 477.556 323.456 477.497 323.853 477.445C324.251 477.388 324.54 477.303 324.72 477.189C324.904 477.071 324.997 476.888 324.997 476.642V476.599C324.997 476.064 324.838 475.65 324.521 475.357C324.204 475.063 323.747 474.916 323.15 474.916C322.52 474.916 322.021 475.054 321.652 475.328C321.287 475.603 321.041 475.927 320.913 476.301L318.512 475.96C318.702 475.297 319.014 474.743 319.45 474.298C319.886 473.848 320.418 473.512 321.048 473.29C321.678 473.062 322.374 472.949 323.136 472.949C323.662 472.949 324.185 473.01 324.706 473.134C325.226 473.257 325.702 473.46 326.133 473.744C326.564 474.024 326.91 474.405 327.17 474.888C327.435 475.371 327.568 475.974 327.568 476.699V484H325.096V482.501H325.011C324.855 482.804 324.635 483.089 324.35 483.354C324.071 483.614 323.718 483.825 323.292 483.986C322.871 484.142 322.376 484.22 321.808 484.22ZM322.475 482.331C322.992 482.331 323.439 482.229 323.818 482.026C324.197 481.817 324.488 481.543 324.691 481.202C324.9 480.861 325.004 480.489 325.004 480.087V478.801C324.923 478.867 324.786 478.929 324.592 478.986C324.403 479.043 324.19 479.092 323.953 479.135C323.716 479.178 323.482 479.215 323.25 479.249C323.018 479.282 322.816 479.31 322.646 479.334C322.262 479.386 321.919 479.471 321.616 479.589C321.313 479.708 321.074 479.874 320.899 480.087C320.724 480.295 320.636 480.565 320.636 480.896C320.636 481.37 320.809 481.727 321.154 481.969C321.5 482.21 321.94 482.331 322.475 482.331ZM334.912 484.213C333.823 484.213 332.887 483.974 332.106 483.496C331.33 483.018 330.731 482.357 330.309 481.514C329.893 480.667 329.684 479.691 329.684 478.588C329.684 477.48 329.897 476.502 330.324 475.655C330.75 474.803 331.351 474.14 332.127 473.666C332.909 473.188 333.832 472.949 334.897 472.949C335.783 472.949 336.566 473.112 337.248 473.439C337.935 473.761 338.482 474.218 338.889 474.81C339.296 475.397 339.528 476.083 339.585 476.869H337.127C337.028 476.344 336.791 475.906 336.417 475.555C336.048 475.2 335.553 475.023 334.933 475.023C334.407 475.023 333.946 475.165 333.548 475.449C333.15 475.728 332.84 476.131 332.618 476.656C332.4 477.182 332.291 477.812 332.291 478.545C332.291 479.289 332.4 479.928 332.618 480.463C332.835 480.993 333.141 481.403 333.534 481.692C333.931 481.976 334.398 482.118 334.933 482.118C335.312 482.118 335.65 482.047 335.949 481.905C336.252 481.758 336.505 481.547 336.708 481.273C336.912 480.998 337.052 480.664 337.127 480.271H339.585C339.523 481.043 339.296 481.727 338.903 482.324C338.51 482.916 337.975 483.38 337.298 483.716C336.621 484.047 335.825 484.213 334.912 484.213ZM347.143 473.091V475.08H340.872V473.091H347.143ZM342.42 470.477H344.991V480.719C344.991 481.064 345.044 481.33 345.148 481.514C345.257 481.694 345.399 481.817 345.574 481.884C345.749 481.95 345.943 481.983 346.156 481.983C346.317 481.983 346.464 481.971 346.597 481.947C346.734 481.924 346.838 481.902 346.909 481.884L347.342 483.893C347.205 483.941 347.009 483.993 346.753 484.05C346.502 484.107 346.194 484.14 345.83 484.149C345.186 484.168 344.606 484.071 344.089 483.858C343.573 483.64 343.164 483.304 342.861 482.849C342.563 482.395 342.416 481.827 342.42 481.145V470.477ZM349.294 484V473.091H351.865V484H349.294ZM350.586 471.543C350.179 471.543 349.829 471.408 349.535 471.138C349.242 470.863 349.095 470.534 349.095 470.151C349.095 469.762 349.242 469.433 349.535 469.163C349.829 468.889 350.179 468.751 350.586 468.751C350.998 468.751 351.349 468.889 351.637 469.163C351.931 469.433 352.078 469.762 352.078 470.151C352.078 470.534 351.931 470.863 351.637 471.138C351.349 471.408 350.998 471.543 350.586 471.543ZM359.267 484.213C358.202 484.213 357.278 483.979 356.497 483.51C355.716 483.041 355.11 482.385 354.679 481.543C354.253 480.7 354.04 479.715 354.04 478.588C354.04 477.461 354.253 476.474 354.679 475.626C355.11 474.779 355.716 474.121 356.497 473.652C357.278 473.183 358.202 472.949 359.267 472.949C360.332 472.949 361.256 473.183 362.037 473.652C362.818 474.121 363.422 474.779 363.848 475.626C364.279 476.474 364.494 477.461 364.494 478.588C364.494 479.715 364.279 480.7 363.848 481.543C363.422 482.385 362.818 483.041 362.037 483.51C361.256 483.979 360.332 484.213 359.267 484.213ZM359.281 482.153C359.859 482.153 360.342 481.995 360.73 481.678C361.118 481.356 361.407 480.925 361.597 480.385C361.791 479.845 361.888 479.244 361.888 478.581C361.888 477.913 361.791 477.31 361.597 476.77C361.407 476.225 361.118 475.792 360.73 475.47C360.342 475.148 359.859 474.987 359.281 474.987C358.689 474.987 358.197 475.148 357.804 475.47C357.416 475.792 357.125 476.225 356.93 476.77C356.741 477.31 356.646 477.913 356.646 478.581C356.646 479.244 356.741 479.845 356.93 480.385C357.125 480.925 357.416 481.356 357.804 481.678C358.197 481.995 358.689 482.153 359.281 482.153ZM369.248 477.608V484H366.676V473.091H369.134V474.945H369.262C369.513 474.334 369.913 473.848 370.462 473.489C371.016 473.129 371.7 472.949 372.515 472.949C373.267 472.949 373.923 473.11 374.482 473.432C375.045 473.754 375.481 474.22 375.789 474.831C376.101 475.442 376.255 476.183 376.25 477.054V484H373.679V477.452C373.679 476.723 373.49 476.152 373.111 475.74C372.737 475.328 372.219 475.122 371.556 475.122C371.106 475.122 370.706 475.222 370.355 475.42C370.01 475.615 369.738 475.896 369.539 476.266C369.345 476.635 369.248 477.082 369.248 477.608Z" fill="black"/>
<rect x="861" width="423" height="582" rx="24" fill="#D9D9D9"/>
<path d="M1056.17 291C1056.17 283.536 1056.17 279.804 1058.49 277.485C1060.8 275.167 1064.54 275.167 1072 275.167C1079.46 275.167 1083.2 275.167 1085.51 277.485C1087.83 279.804 1087.83 283.536 1087.83 291C1087.83 298.464 1087.83 302.196 1085.51 304.515C1083.2 306.833 1079.46 306.833 1072 306.833C1064.54 306.833 1060.8 306.833 1058.49 304.515C1056.17 302.196 1056.17 298.464 1056.17 291Z" stroke="white" stroke-width="2.5"/>
<path d="M1079.5 286C1080.88 286 1082 284.881 1082 283.5C1082 282.119 1080.88 281 1079.5 281C1078.12 281 1077 282.119 1077 283.5C1077 284.881 1078.12 286 1079.5 286Z" stroke="white" stroke-width="2.5"/>
<path d="M1078.67 307.667C1077.63 303.958 1075.22 300.637 1071.79 298.224C1068.1 295.622 1063.45 294.244 1058.69 294.338C1058.13 294.337 1057.56 294.355 1057 294.392" stroke="white" stroke-width="2.5" stroke-linejoin="round"/>
<path d="M1073.67 301C1076.5 298.789 1079.56 297.655 1082.64 297.667C1084.39 297.665 1086.14 298.036 1087.83 298.769" stroke="white" stroke-width="2.5" stroke-linejoin="round"/>
<rect x="769" y="186" width="282" height="342" rx="24" fill="#515151"/>
<path d="M894.167 357C894.167 349.536 894.167 345.804 896.485 343.485C898.804 341.167 902.536 341.167 910 341.167C917.464 341.167 921.196 341.167 923.515 343.485C925.833 345.804 925.833 349.536 925.833 357C925.833 364.464 925.833 368.196 923.515 370.515C921.196 372.833 917.464 372.833 910 372.833C902.536 372.833 898.804 372.833 896.485 370.515C894.167 368.196 894.167 364.464 894.167 357Z" stroke="white" stroke-width="2.5"/>
<path d="M917.5 352C918.881 352 920 350.881 920 349.5C920 348.119 918.881 347 917.5 347C916.119 347 915 348.119 915 349.5C915 350.881 916.119 352 917.5 352Z" stroke="white" stroke-width="2.5"/>
<path d="M916.667 373.667C915.634 369.958 913.224 366.637 909.794 364.224C906.096 361.622 901.453 360.244 896.693 360.338C896.128 360.337 895.563 360.355 895 360.392" stroke="white" stroke-width="2.5" stroke-linejoin="round"/>
<path d="M911.667 367C914.502 364.789 917.557 363.655 920.644 363.667C922.394 363.665 924.135 364.036 925.833 364.769" stroke="white" stroke-width="2.5" stroke-linejoin="round"/>
</svg>
