<svg width="56" height="56" viewBox="0 0 56 56" fill="none" xmlns="http://www.w3.org/2000/svg">
<rect width="56" height="56" rx="16" fill="#D9E3F7"/>
<path d="M41.3333 27.4222C41.3333 34.4665 35.3629 40.1778 28 40.1778C27.1342 40.179 26.2709 40.0989 25.4205 39.9393C24.8084 39.8242 24.5023 39.7668 24.2887 39.7994C24.075 39.8321 23.7722 39.993 23.1666 40.3152C21.4535 41.2262 19.4559 41.548 17.5348 41.1906C18.2649 40.2925 18.7636 39.2149 18.9837 38.0597C19.117 37.353 18.7866 36.6666 18.2918 36.1641C16.0444 33.882 14.6666 30.8068 14.6666 27.4222C14.6666 20.3781 20.637 14.6666 28 14.6666C35.3629 14.6666 41.3333 20.3781 41.3333 27.4222Z" stroke="#3F71D4" stroke-width="2" stroke-linejoin="round"/>
<path d="M25.3333 25.1282C25.3333 23.7687 26.5271 22.6666 27.9999 22.6666C29.4727 22.6666 30.6666 23.7687 30.6666 25.1282C30.6666 25.6182 30.5115 26.0748 30.2441 26.4584C29.4471 27.6016 27.9999 28.6918 27.9999 30.0513V30.6666" stroke="#3F71D4" stroke-width="2" stroke-linecap="round"/>
<path d="M27.9999 34H28.0119" stroke="#3F71D4" stroke-width="2" stroke-linecap="round" stroke-linejoin="round"/>
</svg>
