<svg width="56" height="56" viewBox="0 0 56 56" fill="none" xmlns="http://www.w3.org/2000/svg">
<rect width="56" height="56" rx="16" fill="#D9E3F7"/>
<path d="M17.3333 32.6667C15.8605 32.6667 14.6666 31.4728 14.6666 30C14.6666 28.5272 15.8605 27.3334 17.3333 27.3334" stroke="#3F71D4" stroke-width="2" stroke-linecap="round" stroke-linejoin="round"/>
<path d="M38.6666 32.6667C40.1394 32.6667 41.3333 31.4728 41.3333 30C41.3333 28.5272 40.1394 27.3334 38.6666 27.3334" stroke="#3F71D4" stroke-width="2" stroke-linecap="round" stroke-linejoin="round"/>
<path d="M21.3334 21.3334V17.3334" stroke="#3F71D4" stroke-width="2" stroke-linejoin="round"/>
<path d="M34.6666 21.3334V17.3334" stroke="#3F71D4" stroke-width="2" stroke-linejoin="round"/>
<path d="M21.3333 17.3333C22.0697 17.3333 22.6667 16.7363 22.6667 16C22.6667 15.2636 22.0697 14.6666 21.3333 14.6666C20.597 14.6666 20 15.2636 20 16C20 16.7363 20.597 17.3333 21.3333 17.3333Z" stroke="#3F71D4" stroke-width="2" stroke-linejoin="round"/>
<path d="M34.6667 17.3333C35.4031 17.3333 36 16.7363 36 16C36 15.2636 35.4031 14.6666 34.6667 14.6666C33.9303 14.6666 33.3334 15.2636 33.3334 16C33.3334 16.7363 33.9303 17.3333 34.6667 17.3333Z" stroke="#3F71D4" stroke-width="2" stroke-linejoin="round"/>
<path d="M30 21.3334H26C22.2288 21.3334 20.3431 21.3334 19.1716 22.5453C18 23.7573 18 25.7079 18 29.6092C18 33.5106 18 35.4611 19.1716 36.6731C20.3431 37.8851 22.2288 37.8851 26 37.8851H27.3671C28.4225 37.8851 28.7949 38.1031 29.5223 38.8951C30.3267 39.7711 31.5721 40.94 32.6989 41.2122C34.3005 41.5992 34.4799 41.0639 34.1225 39.5375C34.0208 39.1027 33.7669 38.4075 34.0347 38.0024C34.1847 37.7755 34.4345 37.7198 34.9344 37.6082C35.7229 37.432 36.3731 37.1442 36.8284 36.6731C38 35.4611 38 33.5106 38 29.6092C38 25.7079 38 23.7573 36.8284 22.5453C35.6568 21.3334 33.7712 21.3334 30 21.3334Z" stroke="#3F71D4" stroke-width="2" stroke-linejoin="round"/>
<path d="M24.6666 32C25.4268 32.8096 26.6369 33.3333 28 33.3333C29.363 33.3333 30.5732 32.8096 31.3333 32" stroke="#3F71D4" stroke-width="2" stroke-linecap="round" stroke-linejoin="round"/>
<path d="M24.0119 26.6666H24" stroke="#3F71D4" stroke-width="2" stroke-linecap="round" stroke-linejoin="round"/>
<path d="M32.012 26.6666H32" stroke="#3F71D4" stroke-width="2" stroke-linecap="round" stroke-linejoin="round"/>
</svg>
