<svg width="56" height="56" viewBox="0 0 56 56" fill="none" xmlns="http://www.w3.org/2000/svg">
<rect width="56" height="56" rx="16" fill="#D9E3F7"/>
<path d="M30.3035 16.5922L32.6499 21.3238C32.9699 21.9824 33.8231 22.6142 34.5431 22.7352L38.7959 23.4476C41.5156 23.9047 42.1556 25.8941 40.1958 27.8566L36.8895 31.1902C36.3295 31.7548 36.023 32.8436 36.1962 33.6233L37.1428 37.75C37.8894 41.0164 36.1695 42.28 33.3032 40.5728L29.317 38.1936C28.5971 37.7634 27.4106 37.7634 26.6772 38.1936L22.691 40.5728C19.838 42.28 18.1049 41.0029 18.8515 37.75L19.798 33.6233C19.9713 32.8436 19.6647 31.7548 19.1048 31.1902L15.7985 27.8566C13.852 25.8941 14.4786 23.9047 17.1983 23.4476L21.4512 22.7352C22.1578 22.6142 23.011 21.9824 23.331 21.3238L25.6774 16.5922C26.9572 14.0248 29.037 14.0248 30.3035 16.5922Z" stroke="#3F71D4" stroke-width="2" stroke-linecap="round" stroke-linejoin="round"/>
</svg>
